SplineFontDB: 3.0
FontName: HattoriHanzo-Light
FullName: Hattori Hanzo Light
FamilyName: Hattori Hanzo
Weight: Light
Copyright: Copyright (c) 2009 by Roman Shamin & Jovanny Lemonad. All rights reserved.
Version: 001.001
ItalicAngle: 0
UnderlinePosition: -50
UnderlineWidth: 50
Ascent: 750
Descent: 250
LayerCount: 2
Layer: 0 0 "Back"  1
Layer: 1 0 "Zeichenebene"  0
NeedsXUIDChange: 1
XUID: [1021 516 963196306 8043545]
FSType: 4
OS2Version: 2
OS2_WeightWidthSlopeOnly: 0
OS2_UseTypoMetrics: 1
CreationTime: 1258673828
ModificationTime: 1307781857
PfmFamily: 17
TTFWeight: 300
TTFWidth: 5
LineGap: 0
VLineGap: 0
Panose: 2 0 5 6 2 0 0 2 0 3
OS2TypoAscent: 0
OS2TypoAOffset: 1
OS2TypoDescent: 0
OS2TypoDOffset: 1
OS2TypoLinegap: 0
OS2WinAscent: 0
OS2WinAOffset: 1
OS2WinDescent: 0
OS2WinDOffset: 1
HheadAscent: -130
HheadAOffset: 1
HheadDescent: -19
HheadDOffset: 1
OS2SubXSize: 700
OS2SubYSize: 650
OS2SubXOff: 0
OS2SubYOff: 140
OS2SupXSize: 700
OS2SupYSize: 650
OS2SupXOff: 0
OS2SupYOff: 477
OS2StrikeYSize: 50
OS2StrikeYPos: 250
OS2Vendor: 'PYRS'
OS2CodePages: 00000005.00000000
OS2UnicodeRanges: 80000203.0000004a.00000000.00000000
Lookup: 258 0 0 "'kern' Horizontales Kerning in Latin lookup 0"  {"'kern' Horizontales Kerning in Latin lookup 0 per glyph data 0"  "'kern' Horizontales Kerning in Latin lookup 0 per glyph data 1"  } ['kern' ('latn' <'dflt' > ) ]
DEI: 91125
LangName: 1033 "" "" "" "RomanShamin&JovannyLemonad: Hattori Hanzo Light: 2009" "HattoriHanzo-Light" "Version 1.000" "" "Hattori Hanzo Light is a trademark of Roman Shamin & Jovanny Lemonad." "Roman Shamin & Jovanny Lemonad" "Roman Shamin" "Copyright (c) 2009 by Roman Shamin & Jovanny Lemonad. All rights reserved." "http://www.jovanny.ru/" "http://www.free-lance.ru/users/al-emist" 
Encoding: UnicodeBmp
UnicodeInterp: none
NameList: Adobe Glyph List
DisplaySize: -24
AntiAlias: 1
FitToEm: 1
WinInfo: 0 50 20
BeginPrivate: 8
BlueValues 23 [-13 0 466 478 700 711]
OtherBlues 11 [-217 -217]
BlueScale 8 0.039625
StdHW 4 [61]

StartChar: afii10018
Encoding: 1041 1041 1
Width: 551
Flags: MW
HStem: 0 61<116 265 116 265> 360 61<116 265 116 265> 639 61<116 473 116 116>
VStem: 50 66<61 360 421 639> 452 69<147 278>
LayerCount: 2
Fore
SplineSet
265 0 m 2
 50 0 l 1
 50 700 l 1
 473 700 l 1
 473 639 l 1
 116 639 l 1
 116 421 l 1
 265 421 l 2
 444 421 521 350 521 208 c 0
 521 81 438 0 265 0 c 2
265 61 m 2
 363 61 452 82 452 212 c 0
 452 344 367 360 265 360 c 2
 116 360 l 1
 116 61 l 1
 265 61 l 2
EndSplineSet
Validated: 1
EndChar

StartChar: afii10019
Encoding: 1042 1042 2
Width: 558
Flags: MW
HStem: 0 61<113 276 113 276> 338 61<113 268 268 289 113 268> 640 60<113 113 113 254>
VStem: 50 63<61 338 399 640> 421 65<485 568.5> 449 37 449 69<138.5 252>
LayerCount: 2
Fore
SplineSet
486 527 m 0xf8
 486 386 370 378 370 378 c 1
 370 375 l 1
 370 375 518 360 518 202 c 0xf2
 518 75 456 0 276 0 c 2
 50 0 l 1
 50 700 l 1
 254 700 l 2
 428 700 486 626 486 527 c 0xf8
113 640 m 1
 113 399 l 1
 268 399 l 2
 352 399 421 443 421 527 c 0
 421 610 366 640 254 640 c 2
 113 640 l 1
276 61 m 2
 374 61 449 72 449 202 c 0xf4
 449 302 379 338 289 338 c 2
 113 338 l 1
 113 61 l 1
 276 61 l 2
EndSplineSet
Validated: 1
EndChar

StartChar: afii10020
Encoding: 1043 1043 3
Width: 464
Flags: MW
HStem: 0 21G<50 113 50 50> 639 61<113 444 113 113>
VStem: 50 63<0 639 0 700 0 700>
LayerCount: 2
Fore
SplineSet
50 700 m 1
 444 700 l 1
 444 639 l 1
 113 639 l 1
 113 0 l 1
 50 0 l 1
 50 700 l 1
EndSplineSet
Validated: 1
EndChar

StartChar: afii10021
Encoding: 1044 1044 4
Width: 627
Flags: MW
HStem: -183 244<10 54 10 60 563 607 563 563> 0 61<137 475 538 540 10 76> 639 61<220 220 220 475>
VStem: 156 64<496.5 639 496.5 700> 475 63<61 639 639 639>
LayerCount: 2
Fore
SplineSet
607 61 m 1xb8
 607 -183 l 1
 563 -183 l 1xb8
 540 0 l 1
 76 0 l 1x78
 54 -183 l 1
 10 -183 l 1
 10 61 l 1
 60 61 l 1
 127 121 156 277 156 700 c 1
 538 700 l 1
 538 61 l 1
 607 61 l 1xb8
220 639 m 1
 220 354 204 151 137 61 c 1
 475 61 l 1
 475 639 l 1
 220 639 l 1
EndSplineSet
Validated: 1
EndChar

StartChar: afii10022
Encoding: 1045 1045 5
Width: 492
Flags: MW
HStem: 0 61<113 462 113 462> 331 61<113 407 113 407> 639 61<113 458 113 113>
VStem: 50 63<61 331 392 639>
LayerCount: 2
Fore
SplineSet
462 0 m 1
 50 0 l 1
 50 700 l 1
 458 700 l 1
 458 639 l 1
 113 639 l 1
 113 392 l 1
 407 392 l 1
 407 331 l 1
 113 331 l 1
 113 61 l 1
 462 61 l 1
 462 0 l 1
EndSplineSet
Validated: 1
EndChar

StartChar: afii10024
Encoding: 1046 1046 6
Width: 858
Flags: MW
HStem: -13 21G<19 63 794.5 838> 0 21G<397 461 397 397> 333 62<293 397 336 397 336 397 461 521 521 527> 680 20G<397 461 461 461> 691 20G<28 71 786.5 829>
VStem: 397 64<0 333 0 333 395 700>
LayerCount: 2
Fore
SplineSet
748 190 m 0xac
 774 98 787 49 848 34 c 1
 838 -13 l 1xac
 751 -13 712 33 676 190 c 0
 647 313 602 333 527 333 c 2
 461 333 l 1
 461 0 l 1
 397 0 l 1x6c
 397 333 l 1
 330 333 l 2
 256 333 210 313 182 190 c 0
 145 33 107 -13 19 -13 c 1
 10 34 l 1
 71 49 84 98 109 190 c 0
 136 287 161 343 230 367 c 1
 175 387 160 430 134 524 c 0
 108 615 85 654 23 668 c 1
 28 711 l 1xac
 114 711 169 684 206 524 c 0
 234 403 262 395 336 395 c 2
 397 395 l 1
 397 700 l 1
 461 700 l 1xb4
 461 395 l 1
 521 395 l 2
 596 395 624 403 652 524 c 0
 689 684 744 711 829 711 c 1
 835 668 l 1
 772 654 750 615 724 524 c 0
 698 430 683 387 627 367 c 1
 697 343 721 287 748 190 c 0xac
EndSplineSet
Validated: 1
EndChar

StartChar: afii10025
Encoding: 1047 1047 7
Width: 524
Flags: MW
HStem: -13 59<180.5 303 178 312> 344 60<149 255 255 258 149 255> 652 59<188.5 279.5>
VStem: 396 68<498.5 574> 414 70<157 236>
LayerCount: 2
Fore
SplineSet
258 344 m 2xe8
 149 344 l 1
 149 404 l 1
 255 404 l 2
 352 404 396 462 396 535 c 0
 396 613 328 652 231 652 c 0
 131 652 57 617 57 617 c 1
 40 656 l 1
 40 656 134 711 243 711 c 0
 377 711 464 641 464 533 c 0xf0
 464 414 350 378 350 378 c 1
 350 375 l 1
 350 375 484 350 484 191 c 0
 484 61 379 -13 245 -13 c 0
 116 -13 20 48 20 48 c 1
 38 89 l 1
 38 89 123 46 233 46 c 0
 373 46 414 121 414 193 c 0
 414 279 370 344 258 344 c 2xe8
EndSplineSet
Validated: 1
EndChar

StartChar: afii10026
Encoding: 1048 1048 8
Width: 608
Flags: MW
HStem: 0 21G<50 121 50 50 495 558 495 495> 680 20G<50 113 113 113 487 558 558 558>
VStem: 50 63<103 103 103 700> 495 63<0 597 597 597>
LayerCount: 2
Fore
SplineSet
113 103 m 1
 487 700 l 1
 558 700 l 1
 558 0 l 1
 495 0 l 1
 495 597 l 1
 121 0 l 1
 50 0 l 1
 50 700 l 1
 113 700 l 1
 113 103 l 1
EndSplineSet
Validated: 1
EndChar

StartChar: afii10027
Encoding: 1049 1049 9
Width: 608
Flags: MW
HStem: 0 21G<50 121 50 50 495 558 495 495> 680 20G<50 113 113 113 487 558 558 558> 728 53<272.5 339.5 272.5 358.5> 728 129<152 358.5>
VStem: 50 63<103 103 103 700> 152 61<839 857 839 857> 495 63<0 597 597 597>
LayerCount: 2
Fore
SplineSet
400 857 m 1xde
 461 857 l 1
 461 792 410 728 307 728 c 0
 190 728 152 792 152 857 c 1
 213 857 l 1xde
 213 821 238 781 307 781 c 0xee
 372 781 400 822 400 857 c 1xde
113 103 m 1
 487 700 l 1
 558 700 l 1
 558 0 l 1
 495 0 l 1
 495 597 l 1
 121 0 l 1
 50 0 l 1
 50 700 l 1
 113 700 l 1
 113 103 l 1
EndSplineSet
Validated: 1
EndChar

StartChar: afii10028
Encoding: 1050 1050 10
Width: 539
Flags: MW
HStem: -13 21G<475.5 519> 0 21G<50 114 50 50> 333 62<114 200 200 208 114 200> 680 20G<50 114 114 114> 691 20G<465 508>
VStem: 50 64<0 333 0 395 395 700>
LayerCount: 2
Fore
SplineSet
415 190 m 0x6c
 441 98 468 49 529 34 c 1
 519 -13 l 1xac
 432 -13 379 33 343 190 c 0
 315 313 283 333 208 333 c 2
 114 333 l 1
 114 0 l 1
 50 0 l 1
 50 700 l 1
 114 700 l 1x74
 114 395 l 1
 200 395 l 2
 274 395 302 403 330 524 c 0
 367 684 422 711 508 711 c 1
 513 668 l 1
 451 654 428 615 402 524 c 0
 376 431 354 388 303 368 c 1
 371 344 388 287 415 190 c 0x6c
EndSplineSet
Validated: 1
EndChar

StartChar: afii10029
Encoding: 1051 1051 11
Width: 604
Flags: MW
HStem: -12 21G<10 10> 0 21G<491 554 491 491> 639 61<218 491 218 218>
VStem: 154 64<433.5 639 402 700> 491 63<0 639 639 639>
LayerCount: 2
Fore
SplineSet
10 -12 m 1xb8
 0 34 l 1
 115 67 154 167 154 700 c 1
 554 700 l 1
 554 0 l 1
 491 0 l 1x78
 491 639 l 1
 218 639 l 1
 218 165 192 7 10 -12 c 1xb8
EndSplineSet
Validated: 1
EndChar

StartChar: afii10030
Encoding: 1052 1052 12
Width: 730
Flags: MW
HStem: 0 21G<50 113 50 50 616 616 616 680> 680 20G<50 113 113 113 616 680 680 680>
VStem: 50 63<0 567> 616 64<0 559 559 559 0 700>
LayerCount: 2
Fore
SplineSet
113 0 m 1
 50 0 l 1
 50 700 l 1
 113 700 l 1
 372 206 l 1
 616 700 l 1
 680 700 l 1
 680 0 l 1
 616 0 l 1
 616 559 l 1
 402 132 l 1
 344 132 l 1
 113 567 l 1
 113 0 l 1
EndSplineSet
Validated: 1
EndChar

StartChar: afii10031
Encoding: 1053 1053 13
Width: 595
Flags: MW
HStem: 0 21G<50 113 50 50 481 545 481 481> 330 61<113 481 113 481> 680 20G<50 113 113 113 481 545 545 545>
VStem: 50 63<0 330 0 391 391 700> 481 64<0 330 330 330 391 700 0 700>
LayerCount: 2
Fore
SplineSet
481 391 m 1
 481 700 l 1
 545 700 l 1
 545 0 l 1
 481 0 l 1
 481 330 l 1
 113 330 l 1
 113 0 l 1
 50 0 l 1
 50 700 l 1
 113 700 l 1
 113 391 l 1
 481 391 l 1
EndSplineSet
Validated: 1
EndChar

StartChar: afii10032
Encoding: 1054 1054 14
Width: 647
Flags: MW
HStem: -13 61<269 379 269 404> 650 61<269 379>
VStem: 40 72<238.5 459.5 238.5 474> 536 71<238.5 459.5>
LayerCount: 2
Fore
SplineSet
324 711 m 0
 484 711 607 599 607 349 c 0
 607 99 484 -13 324 -13 c 0
 164 -13 40 99 40 349 c 0
 40 599 164 711 324 711 c 0
324 48 m 0
 434 48 536 128 536 349 c 0
 536 570 434 650 324 650 c 0
 214 650 112 570 112 349 c 0
 112 128 214 48 324 48 c 0
EndSplineSet
Validated: 1
EndChar

StartChar: afii10033
Encoding: 1055 1055 15
Width: 581
Flags: MW
HStem: 0 21G<50 114 50 50 468 531 468 468> 639 61<114 468 114 114>
VStem: 50 64<0 639 0 700 0 700> 468 63<0 639 639 639>
LayerCount: 2
Fore
SplineSet
50 700 m 1
 531 700 l 1
 531 0 l 1
 468 0 l 1
 468 639 l 1
 114 639 l 1
 114 0 l 1
 50 0 l 1
 50 700 l 1
EndSplineSet
Validated: 1
EndChar

StartChar: afii10035
Encoding: 1057 1057 16
Width: 558
Flags: MW
HStem: -13 61<275 394.5> 650 61<279 380 259 388>
VStem: 40 71<235.5 458.5 235.5 488.5>
LayerCount: 2
Fore
SplineSet
347 48 m 0
 452 48 518 94 518 94 c 1
 538 55 l 1
 538 55 464 -13 325 -13 c 0
 184 -13 40 70 40 343 c 0
 40 634 195 711 323 711 c 0
 437 711 523 649 523 649 c 1
 503 610 l 1
 503 610 431 650 345 650 c 0
 213 650 111 574 111 343 c 0
 111 128 203 48 347 48 c 0
EndSplineSet
Validated: 1
EndChar

StartChar: afii10036
Encoding: 1058 1058 17
Width: 521
Flags: MW
HStem: 0 21G<229 292 229 229> 639 61<20 229 20 501 292 501 292 292>
VStem: 229 63<0 639 0 639>
LayerCount: 2
Fore
SplineSet
20 700 m 1
 501 700 l 1
 501 639 l 1
 292 639 l 1
 292 0 l 1
 229 0 l 1
 229 639 l 1
 20 639 l 1
 20 700 l 1
EndSplineSet
Validated: 1
EndChar

StartChar: afii10037
Encoding: 1059 1059 18
Width: 573
Flags: MW
HStem: -13 58<168 195.5 159 223> 680 20G<20 90 90 90 483 553 553 553>
LayerCount: 2
Fore
SplineSet
483 700 m 1
 553 700 l 1
 332 125 l 2
 299 39 260 -13 186 -13 c 0
 150 -13 114 4 89 28 c 1
 107 65 l 1
 107 65 141 45 177 45 c 0
 214 45 241 64 270 143 c 1
 271 148 l 1
 20 700 l 1
 90 700 l 1
 303 231 l 1
 483 700 l 1
EndSplineSet
Validated: 1
EndChar

StartChar: afii10038
Encoding: 1060 1060 19
Width: 753
Flags: MW
HStem: -29 21G<343 410 343 343> 47 61<292.5 343 292.5 343 410 460.5> 620 61<292.5 343 410 460.5> 720 20G<343 410 410 410>
VStem: 30 73<261.5 466.5 261.5 483.5> 343 67<-29 47 -29 47 108 620 681 740> 650 73<261.5 466.5>
CounterMasks: 1 0e
LayerCount: 2
Fore
SplineSet
410 681 m 1
 559 681 723 603 723 364 c 0
 723 124 559 47 410 47 c 1
 410 -29 l 1
 343 -29 l 1
 343 47 l 1
 194 47 30 124 30 364 c 0
 30 603 194 681 343 681 c 1
 343 740 l 1
 410 740 l 1
 410 681 l 1
343 108 m 1
 343 620 l 1
 242 620 103 569 103 364 c 0
 103 159 242 108 343 108 c 1
410 108 m 1
 511 108 650 159 650 364 c 0
 650 569 511 620 410 620 c 1
 410 108 l 1
EndSplineSet
Validated: 1
EndChar

StartChar: afii10039
Encoding: 1061 1061 20
Width: 550
Flags: MW
HStem: 0 21G<0 77 0 0 473 550 473 473> 680 20G<6 83 83 83 467 544 544 544>
LayerCount: 2
Fore
SplineSet
270 413 m 1
 280 413 l 1
 467 700 l 1
 544 700 l 1
 318 353 l 1
 550 0 l 1
 473 0 l 1
 275 301 l 1
 77 0 l 1
 0 0 l 1
 232 353 l 1
 6 700 l 1
 83 700 l 1
 270 413 l 1
EndSplineSet
Validated: 1
EndChar

StartChar: afii10040
Encoding: 1062 1062 21
Width: 606
Flags: MW
HStem: -183 21G<541 586 541 541> 0 61<114 454 517 519> 680 20G<50 114 114 114 454 517 517 517>
VStem: 50 64<61 700 61 700 61 700> 454 63<61 700 61 700>
LayerCount: 2
Fore
SplineSet
50 0 m 1
 50 700 l 1
 114 700 l 1
 114 61 l 1
 454 61 l 1
 454 700 l 1
 517 700 l 1
 517 61 l 1
 586 61 l 1
 586 -183 l 1
 541 -183 l 1
 519 0 l 1
 50 0 l 1
EndSplineSet
Validated: 1
EndChar

StartChar: afii10041
Encoding: 1063 1063 22
Width: 556
Flags: MW
HStem: 0 21G<442 506 442 442> 259 56<198 301> 680 20G<40 104 104 104 442 506 506 506>
VStem: 40 64<461 700> 442 64<0 292 292 292 342 700 0 700>
LayerCount: 2
Fore
SplineSet
442 342 m 1
 442 700 l 1
 506 700 l 1
 506 0 l 1
 442 0 l 1
 442 292 l 1
 442 292 360 259 242 259 c 0
 98 259 40 340 40 461 c 2
 40 700 l 1
 104 700 l 1
 104 461 l 2
 104 366 149 315 247 315 c 0
 375 315 442 342 442 342 c 1
EndSplineSet
Validated: 1
EndChar

StartChar: afii10042
Encoding: 1064 1064 23
Width: 815
Flags: MW
HStem: 0 61<114 376 439 701> 680 20G<50 114 114 114 376 439 439 439 701 765 765 765>
VStem: 50 64<61 700 61 700 61 700> 376 63<61 700 61 700> 701 64<61 700>
CounterMasks: 1 38
LayerCount: 2
Fore
SplineSet
765 0 m 1
 50 0 l 1
 50 700 l 1
 114 700 l 1
 114 61 l 1
 376 61 l 1
 376 700 l 1
 439 700 l 1
 439 61 l 1
 701 61 l 1
 701 700 l 1
 765 700 l 1
 765 0 l 1
EndSplineSet
Validated: 1
EndChar

StartChar: afii10043
Encoding: 1065 1065 24
Width: 854
Flags: MW
HStem: -183 21G<790 834 790 790> 0 61<114 376 439 702 765 768> 680 20G<50 114 114 114 376 439 439 439 702 765 765 765>
VStem: 50 64<61 700 61 700 61 700> 376 63<61 700 61 700> 702 63<61 700 61 700>
LayerCount: 2
Fore
SplineSet
834 61 m 1
 834 -183 l 1
 790 -183 l 1
 768 0 l 1
 50 0 l 1
 50 700 l 1
 114 700 l 1
 114 61 l 1
 376 61 l 1
 376 700 l 1
 439 700 l 1
 439 61 l 1
 702 61 l 1
 702 700 l 1
 765 700 l 1
 765 61 l 1
 834 61 l 1
EndSplineSet
Validated: 1
EndChar

StartChar: afii10044
Encoding: 1066 1066 25
Width: 672
Flags: MW
HStem: 0 61<248 372 248 372> 352 60<248 372 248 372> 639 61<10 248 10 182>
VStem: 10 238<639 700> 182 66<61 352 412 639 639 639> 573 69<143 273.5>
LayerCount: 2
Fore
SplineSet
10 639 m 1xf4
 10 700 l 1xf4
 248 700 l 1
 248 412 l 1
 372 412 l 2
 552 412 642 342 642 208 c 0
 642 70 545 0 372 0 c 2
 182 0 l 1
 182 639 l 1xec
 10 639 l 1xf4
372 61 m 2
 471 61 573 78 573 208 c 0
 573 339 474 352 372 352 c 2
 248 352 l 1
 248 61 l 1
 372 61 l 2
EndSplineSet
Validated: 1
EndChar

StartChar: afii10045
Encoding: 1067 1067 26
Width: 701
Flags: MW
HStem: 0 61<117 227 117 227> 352 60<117 227 117 227> 680 20G<50 117 117 117 587 651 651 651>
VStem: 50 67<61 352 412 700> 428 69<143 273.5> 587 64<0 700 0 700>
LayerCount: 2
Fore
SplineSet
651 700 m 1
 651 0 l 1
 587 0 l 1
 587 700 l 1
 651 700 l 1
227 0 m 2
 50 0 l 1
 50 700 l 1
 117 700 l 1
 117 412 l 1
 227 412 l 2
 407 412 497 342 497 208 c 0
 497 70 400 0 227 0 c 2
227 61 m 2
 325 61 428 78 428 208 c 0
 428 339 329 352 227 352 c 2
 117 352 l 1
 117 61 l 1
 227 61 l 2
EndSplineSet
Validated: 1
EndChar

StartChar: afii10046
Encoding: 1068 1068 27
Width: 527
Flags: MW
HStem: 0 61<116 227 116 227> 352 60<116 227 116 227> 680 20G<50 116 116 116>
VStem: 50 66<61 61 61 352 412 700> 428 69<143 273.5>
LayerCount: 2
Fore
SplineSet
227 0 m 2
 50 0 l 1
 50 700 l 1
 116 700 l 1
 116 412 l 1
 227 412 l 2
 406 412 497 342 497 208 c 0
 497 70 400 0 227 0 c 2
116 61 m 1
 227 61 l 2
 325 61 428 78 428 208 c 0
 428 339 329 352 227 352 c 2
 116 352 l 1
 116 61 l 1
EndSplineSet
Validated: 1
EndChar

StartChar: afii10047
Encoding: 1069 1069 28
Width: 557
Flags: MW
HStem: -13 61<174.5 290 168.5 314.5> 329 60<126 445 126 445> 650 61<185.5 283>
VStem: 445 72<329 329 389 389>
LayerCount: 2
Fore
SplineSet
243 711 m 0
 371 711 517 648 517 357 c 0
 517 84 385 -13 244 -13 c 0
 105 -13 20 55 20 55 c 1
 39 94 l 1
 39 94 116 48 221 48 c 0
 359 48 439 134 445 329 c 1
 126 329 l 1
 126 389 l 1
 445 389 l 1
 437 594 346 650 220 650 c 0
 135 650 62 610 62 610 c 1
 43 649 l 1
 43 649 128 711 243 711 c 0
EndSplineSet
Validated: 1
EndChar

StartChar: afii10048
Encoding: 1070 1070 29
Width: 802
Flags: MW
HStem: -13 61<437 547 437 572> 0 21G<50 114 50 50> 330 61<114 222 114 223> 650 61<437 547> 680 20G<50 114 114 114>
VStem: 50 64<0 330 0 391 391 700> 222 73<330 330> 688 74<238.5 459.5>
LayerCount: 2
Fore
SplineSet
492 711 m 0xb7
 652 711 762 599 762 349 c 0
 762 99 652 -13 492 -13 c 0xb7
 336 -13 228 93 222 330 c 1
 114 330 l 1
 114 0 l 1
 50 0 l 1
 50 700 l 1
 114 700 l 1x6f
 114 391 l 1
 223 391 l 1
 235 612 341 711 492 711 c 0xb7
492 48 m 0
 602 48 688 128 688 349 c 0
 688 570 602 650 492 650 c 0
 382 650 295 570 295 349 c 0
 295 128 382 48 492 48 c 0
EndSplineSet
Validated: 1
EndChar

StartChar: afii10049
Encoding: 1071 1071 30
Width: 570
Flags: MW
HStem: -13 21G<26 62.5> 0 21G<453 520 453 453> 287 61<351.5 389 389 453> 639 61<275.5 520 325 453>
VStem: 62 70<443.5 561 430.5 565> 453 67<0 287 287 287 348 639 639 639>
LayerCount: 2
Fore
SplineSet
325 700 m 2xbc
 520 700 l 1
 520 0 l 1
 453 0 l 1x7c
 453 287 l 1
 389 287 l 2
 314 287 231 284 207 163 c 0
 176 5 99 -13 26 -13 c 1
 20 33 l 1
 79 53 111 71 134 163 c 0
 152 236 177 280 221 304 c 1
 113 327 62 391 62 496 c 0
 62 634 152 700 325 700 c 2xbc
453 348 m 1
 453 639 l 1
 325 639 l 2
 226 639 132 626 132 496 c 0
 132 365 223 348 325 348 c 2
 453 348 l 1
EndSplineSet
Validated: 1
EndChar

StartChar: D
Encoding: 68 68 31
Width: 572
Flags: MW
HStem: 0 61<114 248 114 248> 639 61<114 248 114 114>
VStem: 50 64<61 639 61 700 61 700> 460 72<244.5 454.5>
LayerCount: 2
Fore
SplineSet
50 700 m 1
 248 700 l 2
 408 700 532 589 532 349 c 0
 532 111 408 0 248 0 c 2
 50 0 l 1
 50 700 l 1
248 61 m 2
 358 61 460 140 460 349 c 0
 460 560 358 639 248 639 c 2
 114 639 l 1
 114 61 l 1
 248 61 l 2
EndSplineSet
Validated: 1
EndChar

StartChar: F
Encoding: 70 70 32
Width: 478
Flags: MW
HStem: 0 21G<50 113 50 50> 330 61<113 406 113 406> 639 61<113 458 113 113>
VStem: 50 63<0 330 391 639>
LayerCount: 2
Fore
SplineSet
50 700 m 1
 458 700 l 1
 458 639 l 1
 113 639 l 1
 113 391 l 1
 406 391 l 1
 406 330 l 1
 113 330 l 1
 113 0 l 1
 50 0 l 1
 50 700 l 1
EndSplineSet
Validated: 1
EndChar

StartChar: G
Encoding: 71 71 33
Width: 588
Flags: MW
HStem: -13 61<274.5 369.5 274.5 394.5> 650 61<279.5 380 259 388>
VStem: 40 72<235.5 453.5 235.5 481.5> 474 64<84 358 52 358>
LayerCount: 2
Fore
SplineSet
474 84 m 1
 474 358 l 1
 538 358 l 1
 538 52 l 1
 538 52 464 -13 325 -13 c 0
 184 -13 40 70 40 343 c 0
 40 620 195 711 323 711 c 0
 437 711 523 649 523 649 c 1
 504 610 l 1
 504 610 431 650 345 650 c 0
 214 650 112 564 112 343 c 0
 112 128 207 48 342 48 c 0
 397 48 443 67 474 84 c 1
EndSplineSet
Validated: 1
EndChar

StartChar: I
Encoding: 73 73 34
Width: 163
Flags: MW
HStem: 0 21G<50 113 50 50> 680 20G<50 113 113 113>
VStem: 50 63<0 700 0 700>
LayerCount: 2
Fore
SplineSet
113 700 m 1
 113 0 l 1
 50 0 l 1
 50 700 l 1
 113 700 l 1
EndSplineSet
Validated: 1
EndChar

StartChar: J
Encoding: 74 74 35
Width: 226
Flags: MW
HStem: -13 21G<7 7> 680 20G<113 176 176 176>
VStem: 113 63<219 700>
LayerCount: 2
Fore
SplineSet
113 219 m 2
 113 700 l 1
 176 700 l 1
 176 219 l 2
 176 142 158 -5 7 -13 c 1
 0 33 l 1
 70 53 113 92 113 219 c 2
EndSplineSet
Validated: 1
EndChar

StartChar: K
Encoding: 75 75 36
Width: 527
Flags: MW
HStem: 0 21G<50 113 50 50 447 447 447 527> 680 20G<50 113 113 113 410 491 491 491>
VStem: 50 63<0 252 347 700>
LayerCount: 2
Fore
SplineSet
113 252 m 1
 113 0 l 1
 50 0 l 1
 50 700 l 1
 113 700 l 1
 113 347 l 1
 410 700 l 1
 491 700 l 1
 229 389 l 1
 527 0 l 1
 447 0 l 1
 187 339 l 1
 113 252 l 1
EndSplineSet
Validated: 1
EndChar

StartChar: L
Encoding: 76 76 37
Width: 482
Flags: MW
HStem: 0 61<113 462 113 462> 680 20G<50 113 113 113>
VStem: 50 63<61 700 61 700 61 700>
LayerCount: 2
Fore
SplineSet
462 0 m 1
 50 0 l 1
 50 700 l 1
 113 700 l 1
 113 61 l 1
 462 61 l 1
 462 0 l 1
EndSplineSet
Validated: 1
EndChar

StartChar: N
Encoding: 78 78 38
Width: 608
Flags: MW
HStem: 0 21G<50 113 50 50 487 558 487 487> 680 20G<50 121 121 121 495 558 558 558>
VStem: 50 63<0 598 0 700> 495 63<102 700>
LayerCount: 2
Fore
SplineSet
558 0 m 1
 487 0 l 1
 113 598 l 1
 113 0 l 1
 50 0 l 1
 50 700 l 1
 121 700 l 1
 495 102 l 1
 495 700 l 1
 558 700 l 1
 558 0 l 1
EndSplineSet
Validated: 1
EndChar

StartChar: Q
Encoding: 81 81 39
Width: 654
Flags: MW
HStem: -156 21G<595 595> -13 61<269 324> 650 61<269 379>
VStem: 40 72<238.5 459.5 238.5 474> 535 72<249 459.5>
LayerCount: 2
Fore
SplineSet
415 1 m 1
 614 -126 l 1
 595 -156 l 1
 595 -156 517 -136 324 -13 c 1
 164 -13 40 99 40 349 c 0
 40 599 164 711 324 711 c 0
 484 711 607 599 607 349 c 0
 607 149 528 38 415 1 c 1
112 349 m 0
 112 128 214 48 324 48 c 0
 434 48 535 128 535 349 c 0
 535 570 434 650 324 650 c 0
 214 650 112 570 112 349 c 0
EndSplineSet
Validated: 1
EndChar

StartChar: R
Encoding: 82 82 40
Width: 533
Flags: MW
HStem: 0 21G<50 117 50 50 432 503 432 432> 286 61<117 234 117 234> 639 61<117 234 117 117>
VStem: 50 67<0 286 347 639> 434 69<446 561>
LayerCount: 2
Fore
SplineSet
503 0 m 1
 432 0 l 1
 287 288 l 1
 270 287 252 286 234 286 c 2
 117 286 l 1
 117 0 l 1
 50 0 l 1
 50 700 l 1
 234 700 l 2
 406 700 503 634 503 496 c 0
 503 396 453 328 352 300 c 1
 503 0 l 1
117 347 m 1
 234 347 l 2
 335 347 434 364 434 496 c 0
 434 626 332 639 234 639 c 2
 117 639 l 1
 117 347 l 1
EndSplineSet
Validated: 1
EndChar

StartChar: S
Encoding: 83 83 41
Width: 533
Flags: MW
HStem: -13 61<195.5 320 195.5 341> 650 61<241.5 327 202.5 336>
VStem: 42 69<485 574.5 485 584> 433 70<145 217.5>
LayerCount: 2
Fore
SplineSet
477 666 m 1
 463 623 l 1
 463 623 382 650 290 650 c 0
 193 650 111 622 111 527 c 0
 111 443 193 420 280 392 c 0
 422 345 503 297 503 175 c 0
 503 55 409 -13 273 -13 c 0
 106 -13 30 52 30 52 c 1
 50 94 l 1
 50 94 145 48 246 48 c 0
 394 48 433 109 433 181 c 0
 433 254 373 287 262 324 c 0
 152 361 42 400 42 523 c 0
 42 645 136 711 269 711 c 0
 385 711 477 666 477 666 c 1
EndSplineSet
Validated: 1
EndChar

StartChar: U
Encoding: 85 85 42
Width: 584
Flags: MW
HStem: -13 61<241 343.5> 680 20G<50 113 113 113 470 534 534 534>
VStem: 50 63<238 700> 470 64<238 700>
LayerCount: 2
Fore
SplineSet
534 700 m 1
 534 238 l 2
 534 40 395 -13 292 -13 c 0
 190 -13 50 40 50 238 c 2
 50 700 l 1
 113 700 l 1
 113 238 l 2
 113 109 182 48 292 48 c 0
 402 48 470 109 470 238 c 2
 470 700 l 1
 534 700 l 1
EndSplineSet
Validated: 1
EndChar

StartChar: V
Encoding: 86 86 43
Width: 584
Flags: MW
HStem: 0 21G<263 321 263 263> 680 20G<0 68 68 68 516 584 584 584>
LayerCount: 2
Fore
SplineSet
321 0 m 1
 263 0 l 1
 0 700 l 1
 68 700 l 1
 292 104 l 1
 516 700 l 1
 584 700 l 1
 321 0 l 1
EndSplineSet
Validated: 1
EndChar

StartChar: W
Encoding: 87 87 44
Width: 886
Flags: MW
HStem: 0 21G<212 271 212 212 615 674 615 615> 680 20G<0 67 67 67 819 886 886 886>
LayerCount: 2
Fore
SplineSet
407 634 m 1
 479 634 l 1
 644 124 l 1
 819 700 l 1
 886 700 l 1
 674 0 l 1
 615 0 l 1
 443 531 l 1
 271 0 l 1
 212 0 l 1
 0 700 l 1
 67 700 l 1
 242 124 l 1
 407 634 l 1
EndSplineSet
Validated: 1
EndChar

StartChar: Y
Encoding: 89 89 45
Width: 585
Flags: MW
HStem: 0 21G<267 331 267 267> 680 20G<0 71 71 71 514 585 585 585>
VStem: 267 64<0 267 267 267>
LayerCount: 2
Fore
SplineSet
514 700 m 1
 585 700 l 1
 331 270 l 1
 331 0 l 1
 267 0 l 1
 267 267 l 1
 0 700 l 1
 71 700 l 1
 299 334 l 1
 514 700 l 1
EndSplineSet
Validated: 1
EndChar

StartChar: Z
Encoding: 90 90 46
Width: 515
Flags: MW
HStem: 0 61<97 495 20 20> 639 61<34 491 34 414 34 491>
LayerCount: 2
Fore
SplineSet
34 639 m 1
 34 700 l 1
 491 700 l 1
 491 639 l 1
 97 61 l 1
 495 61 l 1
 495 0 l 1
 20 0 l 1
 20 61 l 1
 414 639 l 1
 34 639 l 1
EndSplineSet
Validated: 1
EndChar

StartChar: afii10065
Encoding: 1072 1072 48
Width: 443
Flags: MW
HStem: -5 51<156 205.5 156 209> 0 21G<344 393 344 344> 220 49<332 332> 421 51<184.5 256.5>
VStem: 35 61<92 156.5 92 157> 332 61<133 220 220 220 269 275 0 332.5>
LayerCount: 2
Fore
SplineSet
228 472 m 0xbc
 335 472 393 427 393 275 c 2
 393 0 l 1
 344 0 l 1x7c
 344 0 338 36 335 71 c 1
 304 39 244 -5 174 -5 c 0
 90 -5 35 41 35 114 c 0
 35 200 98 266 332 269 c 1
 332 275 l 2
 332 390 300 421 213 421 c 0
 150 421 77 394 77 394 c 1
 64 431 l 1
 64 431 141 472 228 472 c 0xbc
178 46 m 0xbc
 233 46 287 79 332 133 c 1
 332 220 l 1
 185 219 96 195 96 118 c 0
 96 66 134 46 178 46 c 0xbc
EndSplineSet
Validated: 1
EndChar

StartChar: afii10066
Encoding: 1073 1073 49
Width: 467
Flags: MW
HStem: -11 56<200 281.5 200 304> 386 52<226 295> 680 20G<425 425>
VStem: 50 61<220 271 160 360> 372 62<160.5 271.5>
LayerCount: 2
Fore
SplineSet
240 45 m 0
 323 45 372 101 372 220 c 0
 372 323 332 386 258 386 c 0
 185 386 126 325 111 271 c 1
 111 220 l 2
 111 100 160 45 240 45 c 0
262 438 m 0
 362 438 434 362 434 220 c 0
 434 79 368 -11 240 -11 c 0
 134 -11 50 70 50 220 c 2
 50 360 l 2
 50 590 164 643 300 673 c 2
 425 700 l 1
 437 645 l 1
 340 624 l 2
 150 583 120 520 111 360 c 1
 140 405 190 438 262 438 c 0
EndSplineSet
Validated: 1
EndChar

StartChar: afii10067
Encoding: 1074 1074 50
Width: 425
Flags: MW
HStem: 0 50<111 232 232 250> 217 53<111 222 222 226 111 222> 416 50<111 206 111 111>
VStem: 50 61<50 217 270 416> 307 56<325 372> 337 26 337 58<110.5 163>
LayerCount: 2
Fore
SplineSet
50 0 m 1xf2
 50 466 l 1
 219 466 l 2
 300 466 363 430 363 349 c 0xf8
 363 267 291 249 291 249 c 1
 291 247 l 1
 291 247 395 235 395 132 c 0
 395 43 329 0 250 0 c 2
 50 0 l 1xf2
206 416 m 2
 111 416 l 1
 111 270 l 1
 222 270 l 2
 274 270 307 303 307 347 c 0
 307 397 271 416 206 416 c 2
226 217 m 2
 111 217 l 1
 111 50 l 1
 232 50 l 2
 316 50 337 86 337 135 c 0xf4
 337 191 296 217 226 217 c 2
EndSplineSet
Validated: 1
EndChar

StartChar: afii10068
Encoding: 1075 1075 51
Width: 352
Flags: MW
HStem: 0 21G<50 50 50 111> 414 52<111 332 111 111>
VStem: 50 61<0 414 0 466 0 466>
LayerCount: 2
Fore
SplineSet
50 0 m 1
 50 466 l 1
 332 466 l 1
 332 414 l 1
 111 414 l 1
 111 0 l 1
 50 0 l 1
EndSplineSet
Validated: 1
EndChar

StartChar: afii10069
Encoding: 1076 1076 52
Width: 481
Flags: MW
HStem: -141 194<10 40 10 40 10 50 421 421 421 461> 0 53<113 348 10 72> 414 52<170 348 170 170>
VStem: 112 58<344 414 344 466> 348 61<53 414 414 414>
LayerCount: 2
Fore
SplineSet
10 -141 m 1xb8
 10 53 l 1
 40 53 l 1
 85 85 112 182 112 466 c 1
 409 466 l 1
 409 53 l 1
 461 53 l 1
 461 -141 l 1
 421 -141 l 1xb8
 399 0 l 1
 72 0 l 1x78
 50 -141 l 1
 10 -141 l 1xb8
113 53 m 1
 348 53 l 1
 348 414 l 1
 170 414 l 1
 170 274 164 130 113 53 c 1
EndSplineSet
Validated: 1
EndChar

StartChar: afii10070
Encoding: 1077 1077 53
Width: 428
Flags: MW
HStem: -11 53<213 284> 229 54 428 50<201.5 267>
VStem: 30 61<161.5 227 161.5 306.5> 337 61
LayerCount: 2
Fore
SplineSet
250 42 m 0
 329 42 377 65 377 65 c 1
 390 30 l 1
 390 30 329 -11 239 -11 c 0
 117 -11 30 76 30 228 c 0
 30 385 130 478 233 478 c 0
 365 478 398 346 398 232 c 1
 91 227 l 1
 91 96 176 42 250 42 c 0
233 428 m 0
 170 428 106 369 93 266 c 1
 112 269 180 279 337 283 c 1
 335 358 301 428 233 428 c 0
EndSplineSet
Validated: 1
EndChar

StartChar: afii10072
Encoding: 1078 1078 54
Width: 641
Flags: MW
HStem: -5 21G<21 57.5 583.5 620> 0 21G<290 351 290 290> 221 51<252 262 262 290 351 379> 446 20G<290 351 351 351> 452 20G<32 63 578 609>
VStem: 290 61<0 221 0 221 272 466>
LayerCount: 2
Fore
SplineSet
351 466 m 1xb4
 351 272 l 1
 389 272 l 2
 432 272 468 282 480 339 c 0
 506 459 547 472 609 472 c 1
 617 432 l 1
 584 422 556 414 544 338 c 0
 539 309 528 287 509 270 c 0
 488 252 467 249 467 249 c 1
 467 247 l 1
 467 247 490 244 509 225 c 0
 528 206 540 179 547 144 c 0
 560 72 588 52 631 40 c 1
 620 -5 l 1xac
 547 -5 511 20 484 144 c 0
 467 219 432 221 379 221 c 2
 351 221 l 1
 351 0 l 1
 290 0 l 1x74
 290 221 l 1
 262 221 l 2
 209 221 174 219 157 144 c 0
 130 20 94 -5 21 -5 c 1
 10 40 l 1
 53 52 81 72 94 144 c 0
 101 179 113 206 132 225 c 0
 151 244 174 247 174 247 c 1
 174 249 l 1
 174 249 153 252 132 270 c 0
 113 287 102 309 97 338 c 0
 85 414 57 422 24 432 c 1
 32 472 l 1xac
 94 472 135 459 161 339 c 0
 173 282 209 272 252 272 c 2
 290 272 l 1
 290 466 l 1
 351 466 l 1xb4
EndSplineSet
Validated: 1
EndChar

StartChar: afii10073
Encoding: 1079 1079 55
Width: 396
Flags: MW
HStem: -11 53<139.5 222 137.5 228> 217 56<107 193 193 194 107 193> 426 52<145 203.5>
VStem: 280 61<330.5 381.5> 294 62<105 156>
LayerCount: 2
Fore
SplineSet
194 217 m 2xe8
 107 217 l 1
 107 273 l 1
 193 273 l 2
 252 273 280 306 280 355 c 0
 280 408 236 426 171 426 c 0
 103 426 46 403 46 403 c 1
 33 440 l 1
 33 440 108 478 182 478 c 0
 272 478 341 436 341 354 c 0xf0
 341 274 263 251 263 251 c 1
 263 249 l 1
 263 249 356 237 356 126 c 0
 356 37 273 -11 183 -11 c 0
 96 -11 20 30 20 30 c 1
 34 69 l 1
 34 69 100 42 175 42 c 0
 269 42 294 83 294 127 c 0
 294 185 270 217 194 217 c 2xe8
EndSplineSet
Validated: 1
EndChar

StartChar: afii10075
Encoding: 1081 1081 56
Width: 454
Flags: MW
HStem: 0 21G<50 111 50 50 343 343 343 404> 446 20G<50 111 111 111 343 404 404 404> 512 43<198 256 198 270.5> 512 112<97 270.5>
VStem: 50 61<107 466> 97 52<608.5 624 608.5 624> 343 61<0 360 360 360 0 466>
LayerCount: 2
Fore
SplineSet
343 360 m 1xda
 111 0 l 1
 50 0 l 1
 50 466 l 1
 111 466 l 1
 111 107 l 1
 343 466 l 1
 404 466 l 1
 404 0 l 1
 343 0 l 1
 343 360 l 1xda
304 624 m 1
 357 624 l 1
 357 568 314 512 227 512 c 0
 127 512 97 568 97 624 c 1
 149 624 l 1xd6
 149 593 169 555 227 555 c 0xea
 285 555 304 594 304 624 c 1
EndSplineSet
Validated: 1
EndChar

StartChar: afii10076
Encoding: 1082 1082 57
Width: 415
Flags: MW
HStem: -5 21G<357.5 394> 0 21G<50 111 50 50> 221 51<111 153 111 163> 446 20G<50 111 111 111> 452 20G<352 383>
VStem: 50 61<0 221 0 272 272 466>
LayerCount: 2
Fore
SplineSet
320 144 m 0x6c
 333 72 363 52 405 40 c 1
 394 -5 l 1xac
 321 -5 284 20 256 144 c 0
 240 219 206 221 153 221 c 2
 111 221 l 1
 111 0 l 1
 50 0 l 1
 50 466 l 1
 111 466 l 1x74
 111 272 l 1
 163 272 l 2
 206 272 243 282 255 339 c 0
 281 459 321 472 383 472 c 1
 391 432 l 1
 358 421 331 414 319 338 c 0
 315 309 302 287 284 270 c 1
 262 252 242 249 242 249 c 1
 242 247 l 1
 242 247 264 244 283 225 c 0
 302 206 313 179 320 144 c 0x6c
EndSplineSet
Validated: 1
EndChar

StartChar: afii10077
Encoding: 1083 1083 58
Width: 456
Flags: MW
HStem: -5 21G<12 12> 0 21G<345 406 345 345> 414 52<166 345 166 166>
VStem: 105 61<301 414 257 466> 345 61<0 414 414 414>
LayerCount: 2
Fore
SplineSet
12 -5 m 1xb8
 0 40 l 1
 77 61 105 136 105 466 c 1
 406 466 l 1
 406 0 l 1
 345 0 l 1x78
 345 414 l 1
 166 414 l 1
 166 100 127 10 12 -5 c 1xb8
EndSplineSet
Validated: 1
EndChar

StartChar: afii10078
Encoding: 1084 1084 59
Width: 575
Flags: MW
HStem: 0 21G<50 110 50 50 465 465 465 525> 446 20G<50 110 110 110 465 525 525 525>
VStem: 50 60<0 356> 465 60<0 351 351 351 0 466>
LayerCount: 2
Fore
SplineSet
110 0 m 1
 50 0 l 1
 50 466 l 1
 110 466 l 1
 292 142 l 1
 465 466 l 1
 525 466 l 1
 525 0 l 1
 465 0 l 1
 465 351 l 1
 323 78 l 1
 263 78 l 1
 110 356 l 1
 110 0 l 1
EndSplineSet
Validated: 1
EndChar

StartChar: afii10079
Encoding: 1085 1085 60
Width: 447
Flags: MW
HStem: 0 21G<50 110 50 50 336 336 336 397> 213 55<110 336 110 336> 446 20G<50 110 110 110 336 397 397 397>
VStem: 50 60<0 213 0 268 268 466> 336 61<0 213 213 213 268 466 0 466>
LayerCount: 2
Fore
SplineSet
336 213 m 1
 110 213 l 1
 110 0 l 1
 50 0 l 1
 50 466 l 1
 110 466 l 1
 110 268 l 1
 336 268 l 1
 336 466 l 1
 397 466 l 1
 397 0 l 1
 336 0 l 1
 336 213 l 1
EndSplineSet
Validated: 1
EndChar

StartChar: afii10080
Encoding: 1086 1086 61
Width: 477
Flags: MW
HStem: -11 53<196.5 279 196.5 290> 425 53<203.5 278.5>
VStem: 30 63<168 298.5 168 314> 384 63<168 298.5>
LayerCount: 2
Fore
SplineSet
240 478 m 0
 346 478 447 395 447 233 c 0
 447 72 343 -11 237 -11 c 0
 131 -11 30 72 30 233 c 0
 30 395 134 478 240 478 c 0
237 42 m 0
 321 42 384 103 384 233 c 0
 384 364 317 425 240 425 c 0
 167 425 93 364 93 233 c 0
 93 103 156 42 237 42 c 0
EndSplineSet
Validated: 1
EndChar

StartChar: afii10081
Encoding: 1087 1087 62
Width: 454
Flags: MW
HStem: 0 21G<50 111 50 50 343 404 343 343> 414 52<111 343 111 111>
VStem: 50 61<0 414 0 466 0 466> 343 61<0 414 414 414>
LayerCount: 2
Fore
SplineSet
50 466 m 1
 404 466 l 1
 404 0 l 1
 343 0 l 1
 343 414 l 1
 111 414 l 1
 111 0 l 1
 50 0 l 1
 50 466 l 1
EndSplineSet
Validated: 1
EndChar

StartChar: afii10082
Encoding: 1088 1088 63
Width: 458
Flags: MW
HStem: -217 21G<50 50 50 111> -11 50<188.5 242.5 181.5 268.5> 427 51<223 289.5> 446 20G<50 99 99 99>
VStem: 50 61<-217 23 -217 75 75 332> 354 64<155 295.5>
LayerCount: 2
Fore
SplineSet
50 -217 m 1xec
 50 466 l 1
 99 466 l 1xdc
 99 466 105 430 108 396 c 1
 136 430 187 478 255 478 c 0
 378 478 418 368 418 252 c 0
 418 51 328 -11 209 -11 c 0
 168 -11 131 7 111 23 c 1
 111 -217 l 1
 50 -217 l 1xec
354 252 m 0
 354 339 329 427 250 427 c 0xec
 196 427 153 387 111 332 c 1
 111 75 l 1
 128 60 158 39 205 39 c 0
 280 39 354 58 354 252 c 0
EndSplineSet
Validated: 1
EndChar

StartChar: afii10083
Encoding: 1089 1089 64
Width: 396
Flags: MW
HStem: -11 51<197.5 274.5> 426 52<196.5 268.5 171.5 271.5>
VStem: 30 60<172.5 286.5 172.5 305.5>
LayerCount: 2
Fore
SplineSet
241 40 m 0
 314 40 363 67 363 67 c 1
 376 30 l 1
 376 30 323 -11 226 -11 c 0
 120 -11 30 75 30 229 c 0
 30 382 118 478 225 478 c 0
 312 478 366 437 366 437 c 1
 353 400 l 1
 353 400 303 426 240 426 c 0
 153 426 90 344 90 229 c 0
 90 116 154 40 241 40 c 0
EndSplineSet
Validated: 1
EndChar

StartChar: afii10084
Encoding: 1090 1090 65
Width: 399
Flags: MW
HStem: 0 21G<169 230 169 169> 414 52<20 169 20 379 230 379 230 230>
VStem: 169 61<0 414 0 414>
LayerCount: 2
Fore
SplineSet
20 466 m 1
 379 466 l 1
 379 414 l 1
 230 414 l 1
 230 0 l 1
 169 0 l 1
 169 414 l 1
 20 414 l 1
 20 466 l 1
EndSplineSet
Validated: 1
EndChar

StartChar: afii10086
Encoding: 1092 1092 66
Width: 579
Flags: MW
HStem: -217 21G<259 320 259 259> 9 52<210 259 210 259 320 369> 406 52<203.5 259 320 375.5> 638 20G<259 320 320 320>
VStem: 40 64<168.5 293.5 168.5 315> 259 61<-217 9 -217 9 61 406 458 658> 476 63<168.5 293.5>
LayerCount: 2
Fore
SplineSet
259 458 m 1
 259 658 l 1
 320 658 l 1
 320 458 l 1
 449 458 539 402 539 228 c 0
 539 72 449 9 320 9 c 1
 320 -217 l 1
 259 -217 l 1
 259 9 l 1
 130 9 40 72 40 228 c 0
 40 402 130 458 259 458 c 1
259 406 m 1
 148 406 104 359 104 228 c 0
 104 109 161 61 259 61 c 1
 259 406 l 1
320 61 m 1
 418 61 476 109 476 228 c 0
 476 359 431 406 320 406 c 1
 320 61 l 1
EndSplineSet
Validated: 1
EndChar

StartChar: afii10088
Encoding: 1094 1094 67
Width: 476
Flags: MW
HStem: -141 21G<416 456 416 416> 0 53<111 343 111 394> 446 20G<50 111 111 111 343 404 404 404>
VStem: 50 61<53 466 53 466 53 466> 343 61<53 466 53 466>
LayerCount: 2
Fore
SplineSet
456 53 m 1
 456 -141 l 1
 416 -141 l 1
 394 0 l 1
 50 0 l 1
 50 466 l 1
 111 466 l 1
 111 53 l 1
 343 53 l 1
 343 466 l 1
 404 466 l 1
 404 53 l 1
 456 53 l 1
EndSplineSet
Validated: 1
EndChar

StartChar: afii10089
Encoding: 1095 1095 68
Width: 434
Flags: MW
HStem: 0 218<150.5 384 150.5 323> 167 51<150.5 223 150.5 223> 446 20G<40 101 101 101 323 384 384 384>
VStem: 40 61<315 321 321 466> 323 61<0 187 187 187 238 466 0 466>
LayerCount: 2
Fore
SplineSet
323 238 m 1x78
 323 466 l 1
 384 466 l 1
 384 0 l 1
 323 0 l 1xb8
 323 187 l 1
 323 187 262 167 184 167 c 0
 92 167 40 232 40 315 c 2
 40 466 l 1
 101 466 l 1
 101 321 l 2
 101 273 117 218 184 218 c 0
 262 218 323 238 323 238 c 1x78
EndSplineSet
Validated: 1
EndChar

StartChar: afii10090
Encoding: 1096 1096 69
Width: 634
Flags: MW
HStem: 0 53<111 287 347 523> 446 20G<50 111 111 111 287 347 347 347 523 584 584 584>
VStem: 50 61<53 466 53 466 53 466> 287 60<53 466 53 466> 523 61<53 466>
CounterMasks: 1 38
LayerCount: 2
Fore
SplineSet
584 0 m 1
 50 0 l 1
 50 466 l 1
 111 466 l 1
 111 53 l 1
 287 53 l 1
 287 466 l 1
 347 466 l 1
 347 53 l 1
 523 53 l 1
 523 466 l 1
 584 466 l 1
 584 53 l 1
 584 0 l 1
EndSplineSet
Validated: 1
EndChar

StartChar: afii10091
Encoding: 1097 1097 70
Width: 655
Flags: MW
HStem: -141 21G<595 635 595 595> 0 53<111 286 347 522> 446 20G<50 111 111 111 286 347 347 347 522 583 583 583>
VStem: 50 61<53 466 53 466 53 466> 286 61<53 466 53 466> 522 61<53 466 53 466>
CounterMasks: 1 1c
LayerCount: 2
Fore
SplineSet
635 53 m 1
 635 -141 l 1
 595 -141 l 1
 573 0 l 1
 50 0 l 1
 50 466 l 1
 111 466 l 1
 111 53 l 1
 286 53 l 1
 286 466 l 1
 347 466 l 1
 347 53 l 1
 522 53 l 1
 522 466 l 1
 583 466 l 1
 583 53 l 1
 635 53 l 1
EndSplineSet
Validated: 1
EndChar

StartChar: afii10092
Encoding: 1098 1098 71
Width: 490
Flags: MW
HStem: 0 52<189 288 189 288> 231 51<189 288 189 288> 411 55<10 128 10 189>
VStem: 128 61<52 52 52 231 282 411 411 411> 400 60<118 161.5>
LayerCount: 2
Fore
SplineSet
288 282 m 2
 400 282 460 229 460 140 c 0
 460 54 397 0 288 0 c 2
 128 0 l 1
 128 411 l 1
 10 411 l 1
 10 466 l 1
 189 466 l 1
 189 282 l 1
 288 282 l 2
189 52 m 1
 288 52 l 2
 373 52 400 96 400 140 c 0
 400 183 375 231 288 231 c 2
 189 231 l 1
 189 52 l 1
EndSplineSet
Validated: 1
EndChar

StartChar: afii10093
Encoding: 1099 1099 72
Width: 558
Flags: MW
HStem: 0 52<111 210 111 210> 231 51<111 210 111 210> 446 20G<50 111 111 111 448 508 508 508>
VStem: 50 61<52 52 52 231 282 466> 322 60<118 161.5> 448 60<0 466 0 466>
LayerCount: 2
Fore
SplineSet
508 466 m 1
 508 0 l 1
 448 0 l 1
 448 466 l 1
 508 466 l 1
111 52 m 1
 210 52 l 2
 295 52 322 96 322 140 c 0
 322 183 297 231 210 231 c 2
 111 231 l 1
 111 52 l 1
210 282 m 2
 322 282 382 229 382 140 c 0
 382 54 319 0 210 0 c 2
 50 0 l 1
 50 466 l 1
 111 466 l 1
 111 282 l 1
 210 282 l 2
EndSplineSet
Validated: 1
EndChar

StartChar: afii10094
Encoding: 1100 1100 73
Width: 412
Flags: MW
HStem: 0 52<111 210 111 210> 231 51<111 210 111 210> 446 20G<50 111 111 111>
VStem: 50 61<52 52 52 231 282 466> 322 60<118 161.5>
LayerCount: 2
Fore
SplineSet
111 52 m 1
 210 52 l 2
 295 52 322 96 322 140 c 0
 322 183 297 231 210 231 c 2
 111 231 l 1
 111 52 l 1
210 282 m 2
 322 282 382 229 382 140 c 0
 382 54 319 0 210 0 c 2
 50 0 l 1
 50 466 l 1
 111 466 l 1
 111 282 l 1
 210 282 l 2
EndSplineSet
Validated: 1
EndChar

StartChar: afii10095
Encoding: 1101 1101 74
Width: 390
Flags: MW
HStem: -11 51<116.5 197 115 215.5> 221 49<84 141 84 295 84 141> 426 52<121.5 192>
VStem: 295 65<221 221>
LayerCount: 2
Fore
SplineSet
165 478 m 0
 272 478 360 395 360 243 c 0
 360 77 269 -11 162 -11 c 0
 71 -11 20 30 20 30 c 1
 33 67 l 1
 33 67 78 40 152 40 c 0
 242 40 289 111 295 221 c 1
 84 221 l 1
 84 270 l 1
 198 270 263 262 295 256 c 1
 291 363 234 426 150 426 c 0
 87 426 37 400 37 400 c 1
 24 437 l 1
 24 437 78 478 165 478 c 0
EndSplineSet
Validated: 1
EndChar

StartChar: afii10096
Encoding: 1102 1102 75
Width: 599
Flags: MW
HStem: -11 53<339.5 421.5 339.5 433> 0 21G<50 110 50 50> 221 55<110 193 110 195> 425 53<346.5 421> 446 20G<50 110 110 110>
VStem: 50 60<0 221 0 276 276 466> 193 61<221 221> 506 63<168 298.5>
LayerCount: 2
Fore
SplineSet
383 478 m 0xb7
 489 478 569 395 569 233 c 0
 569 72 486 -11 380 -11 c 0xb7
 276 -11 197 68 193 221 c 1
 110 221 l 1
 110 0 l 1
 50 0 l 1
 50 466 l 1
 110 466 l 1x6f
 110 276 l 1
 195 276 l 1
 209 409 286 478 383 478 c 0xb7
380 42 m 0
 463 42 506 103 506 233 c 0
 506 364 459 425 383 425 c 0
 310 425 254 364 254 233 c 0
 254 103 299 42 380 42 c 0
EndSplineSet
Validated: 1
EndChar

StartChar: afii10097
Encoding: 1103 1103 76
Width: 418
Flags: MW
HStem: -5 21G<31 67> 0 21G<318 378 318 318> 190 51<243 269 269 318> 415 51<175 378 208 318>
VStem: 46 57<305.5 357 294.5 372.5> 318 60<0 190 190 190 241 415 415 415>
LayerCount: 2
Fore
SplineSet
208 466 m 2xbc
 378 466 l 1
 378 0 l 1
 318 0 l 1x7c
 318 190 l 1
 269 190 l 2
 217 190 188 188 168 115 c 0
 142 18 103 -5 31 -5 c 1
 20 40 l 1
 62 52 88 58 104 115 c 0
 111 142 120 164 131 180 c 1
 152 205 167 205 167 205 c 1
 167 206 l 1
 167 206 139 207 114 220 c 0
 72 241 46 279 46 332 c 0
 46 413 119 466 208 466 c 2xbc
318 241 m 1
 318 415 l 1
 208 415 l 2
 142 415 103 382 103 332 c 0
 103 257 166 241 235 241 c 2
 318 241 l 1
EndSplineSet
Validated: 1
EndChar

StartChar: afii10074
Encoding: 1080 1080 77
Width: 454
Flags: MW
HStem: 0 21G<50 111 50 50 343 343 343 404> 446 20G<50 111 111 111 343 404 404 404>
VStem: 50 61<107 466> 343 61<0 360 360 360 0 466>
LayerCount: 2
Fore
SplineSet
343 360 m 1
 111 0 l 1
 50 0 l 1
 50 466 l 1
 111 466 l 1
 111 107 l 1
 343 466 l 1
 404 466 l 1
 404 0 l 1
 343 0 l 1
 343 360 l 1
EndSplineSet
Validated: 1
EndChar

StartChar: b
Encoding: 98 98 78
Width: 456
Flags: MW
HStem: -11 54<181 249.5 181 277> 426 52<195 256.5> 680 20G<50 111 111 111>
VStem: 50 61<60 387 446 700> 365 61<181.5 308>
LayerCount: 2
Fore
SplineSet
222 478 m 0
 333 478 426 413 426 247 c 0
 426 95 343 -11 211 -11 c 0
 115 -11 50 35 50 35 c 1
 50 700 l 1
 111 700 l 1
 111 446 l 1
 132 462 168 478 222 478 c 0
199 43 m 0
 300 43 365 116 365 247 c 0
 365 369 302 426 211 426 c 0
 164 426 131 406 111 387 c 1
 111 60 l 1
 133 51 163 43 199 43 c 0
EndSplineSet
Validated: 1
EndChar

StartChar: d
Encoding: 100 100 79
Width: 448
Flags: MW
HStem: -12 51<158.5 225 158.5 227> 0 21G<349 398 349 349> 427 50<205.5 259.5 179.5 266.5> 663 20G<337 398 398 398>
VStem: 30 64<170.5 311 170.5 314.5> 337 61<134 391 391 391 443 683 0 683>
LayerCount: 2
Fore
SplineSet
398 683 m 1xbc
 398 0 l 1
 349 0 l 1x7c
 349 0 343 36 340 70 c 1
 312 36 261 -12 193 -12 c 0
 70 -12 30 98 30 214 c 0
 30 415 120 477 239 477 c 0
 280 477 317 459 337 443 c 1
 337 683 l 1
 398 683 l 1xbc
94 214 m 0
 94 127 119 39 198 39 c 0xbc
 252 39 295 79 337 134 c 1
 337 391 l 1
 320 406 290 427 243 427 c 0
 168 427 94 408 94 214 c 0
EndSplineSet
Validated: 1
EndChar

StartChar: f
Encoding: 102 102 80
Width: 302
Flags: MW
HStem: 0 21G<104 164 104 104> 413 53<20 104 20 104 257 283> 661 50<215 253>
VStem: 104 60<0 413 413 413 466 554>
LayerCount: 2
Fore
SplineSet
234 661 m 0
 196 661 164 640 164 554 c 2
 164 466 l 1
 283 466 l 1
 283 413 l 1
 231 413 193 416 164 420 c 1
 164 0 l 1
 104 0 l 1
 104 413 l 1
 20 413 l 1
 20 466 l 1
 104 466 l 1
 104 554 l 2
 104 670 150 711 231 711 c 0
 283 711 332 674 332 674 c 1
 319 639 l 1
 319 639 272 661 234 661 c 0
EndSplineSet
Validated: 1
EndChar

StartChar: g
Encoding: 103 103 81
Width: 435
Flags: MW
HStem: -211 50<181.5 243.5 181.5 265> 28 49<134 259 138 259> 133 49<199.5 253.5 177.5 266.5> 423 49<182.5 235.5 171.5 258.5> 446 20G<393 425>
VStem: 20 58<-110 -48.5> 50 28 50 56<277 338.5 267 354> 329 57<267 313.5 252.5 338> 358 58<-99.5 -28.5>
LayerCount: 2
Fore
SplineSet
138 77 m 2xec80
 259 77 l 2
 309 77 416 58 416 -57 c 0
 416 -167 323 -211 207 -211 c 0
 76 -211 20 -155 20 -77 c 0xf440
 20 -20 55 24 75 44 c 1
 59 55 50 73 50 97 c 0
 50 133 83 169 93 179 c 1
 64 209 50 252 50 302 c 0
 50 406 125 472 218 472 c 0xf280
 253 472 283 464 307 451 c 1
 316 455 361 466 425 466 c 1
 425 419 l 1
 360 419 342 422 342 422 c 1
 341 421 l 1
 341 421 362 403 376 366 c 0
 383 347 386 325 386 302 c 0
 386 203 315 133 218 133 c 0
 181 133 150 141 125 155 c 1
 106 134 77 77 138 77 c 2xec80
218 423 m 0
 147 423 106 375 106 302 c 0
 106 232 137 182 218 182 c 0
 289 182 329 232 329 302 c 0xf180
 329 374 299 423 218 423 c 0
211 -161 m 0
 276 -161 358 -142 358 -57 c 0
 358 0 308 28 259 28 c 2
 138 28 l 2
 130 28 123 28 117 29 c 1
 117 29 78 0 78 -67 c 0xf440
 78 -153 152 -161 211 -161 c 0
EndSplineSet
Validated: 33
EndChar

StartChar: h
Encoding: 104 104 82
Width: 452
Flags: MW
HStem: 0 21G<50 111 50 50 341 402 341 341> 427 51<232 292.5> 680 20G<50 111 111 111>
VStem: 50 61<0 339 404 700> 341 61<0 307 0 346>
LayerCount: 2
Fore
SplineSet
402 307 m 2
 402 0 l 1
 341 0 l 1
 341 307 l 2
 341 385 327 427 258 427 c 0
 206 427 155 391 111 339 c 1
 111 0 l 1
 50 0 l 1
 50 700 l 1
 111 700 l 1
 111 404 l 1
 143 437 199 478 263 478 c 0
 376 478 402 405 402 307 c 2
EndSplineSet
Validated: 1
EndChar

StartChar: i
Encoding: 105 105 83
Width: 173
Flags: MW
HStem: 0 21G<56 117 56 56> 446 20G<56 117 117 117> 544 70<77 97>
VStem: 56 61<0 466 0 466>
LayerCount: 2
Fore
SplineSet
56 466 m 1
 117 466 l 1
 117 0 l 1
 56 0 l 1
 56 466 l 1
123 579 m 0
 123 559 107 544 87 544 c 0
 67 544 50 559 50 579 c 0
 50 598 67 614 87 614 c 0
 107 614 123 598 123 579 c 0
EndSplineSet
Validated: 1
EndChar

StartChar: j
Encoding: 106 106 84
Width: 195
Flags: MW
HStem: -231 21G<-13 -13> 446 20G<78 139 139 139> 544 70<98.5 119>
VStem: 78 61<0 466>
LayerCount: 2
Fore
SplineSet
78 0 m 2
 78 466 l 1
 139 466 l 1
 139 0 l 2
 139 -77 137 -223 -13 -231 c 1
 -20 -193 l 1
 50 -174 78 -127 78 0 c 2
145 579 m 0
 145 559 129 544 109 544 c 0
 88 544 72 559 72 579 c 0
 72 598 88 614 109 614 c 0
 129 614 145 598 145 579 c 0
EndSplineSet
Validated: 1
EndChar

StartChar: k
Encoding: 107 107 85
Width: 417
Flags: MW
HStem: 0 21G<50 111 50 50 333 407 333 333> 446 20G<310 385 385 385> 680 20G<50 111 111 111>
VStem: 50 61<0 163 246 700>
LayerCount: 2
Fore
SplineSet
208 271 m 1
 407 0 l 1
 333 0 l 1
 168 226 l 1
 111 163 l 1
 111 0 l 1
 50 0 l 1
 50 700 l 1
 111 700 l 1
 111 246 l 1
 310 466 l 1
 385 466 l 1
 208 271 l 1
EndSplineSet
Validated: 1
EndChar

StartChar: l
Encoding: 108 108 86
Width: 184
Flags: MW
HStem: -11 21G<147 147> 680 20G<51 112 112 112>
VStem: 51 61<225 700>
LayerCount: 2
Fore
SplineSet
112 225 m 2
 112 117 111 55 154 26 c 1
 147 -11 l 1
 47 0 51 120 51 225 c 2
 51 700 l 1
 112 700 l 1
 112 225 l 2
EndSplineSet
Validated: 33
EndChar

StartChar: m
Encoding: 109 109 87
Width: 699
Flags: MW
HStem: 0 21G<50 111 50 50 319 380 319 319 588 649 588 588> 427 51<211 270 480 541> 446 20G<50 99 99 99>
VStem: 50 61<0 334 0 466> 319 61<0 287 287 325> 588 61<0 268 0 311>
CounterMasks: 1 1c
LayerCount: 2
Fore
SplineSet
511 478 m 0xdc
 625 478 649 395 649 268 c 2
 649 0 l 1
 588 0 l 1
 588 268 l 2
 588 354 575 427 507 427 c 0
 453 427 420 389 380 334 c 1
 380 0 l 1
 319 0 l 1
 319 287 l 2
 319 363 302 427 238 427 c 0xdc
 184 427 150 388 111 334 c 1
 111 0 l 1
 50 0 l 1
 50 466 l 1
 99 466 l 1xbc
 99 466 105 432 108 398 c 1
 132 432 175 478 242 478 c 0
 314 478 350 445 367 383 c 1
 389 417 434 478 511 478 c 0xdc
EndSplineSet
Validated: 1
EndChar

StartChar: n
Encoding: 110 110 88
Width: 458
Flags: MW
HStem: 0 21G<50 111 50 50 347 408 347 347> 427 51<224.5 286> 446 20G<50 99 99 99>
VStem: 50 61<0 333 0 466> 347 61<0 268 0 311>
LayerCount: 2
Fore
SplineSet
256 478 m 0xd8
 369 478 408 395 408 268 c 2
 408 0 l 1
 347 0 l 1
 347 268 l 2
 347 354 320 427 252 427 c 0xd8
 197 427 153 388 111 333 c 1
 111 0 l 1
 50 0 l 1
 50 466 l 1
 99 466 l 1xb8
 99 466 105 431 108 396 c 1
 136 430 188 478 256 478 c 0xd8
EndSplineSet
Validated: 1
EndChar

StartChar: q
Encoding: 113 113 89
Width: 456
Flags: MW
HStem: -217 21G<345 406 345 345> -11 52<199.5 261> 424 54<206.5 275>
VStem: 30 61<159 285.5 159 296> 345 61<-217 21 21 21 80 407 407 407>
LayerCount: 2
Fore
SplineSet
234 -11 m 0
 123 -11 30 54 30 220 c 0
 30 372 113 478 245 478 c 0
 341 478 406 432 406 432 c 1
 406 -217 l 1
 345 -217 l 1
 345 21 l 1
 324 5 288 -11 234 -11 c 0
257 424 m 0
 156 424 91 351 91 220 c 0
 91 98 154 41 245 41 c 0
 292 41 325 61 345 80 c 1
 345 407 l 1
 323 416 293 424 257 424 c 0
EndSplineSet
Validated: 1
EndChar

StartChar: r
Encoding: 114 114 90
Width: 318
Flags: MW
HStem: 0 21G<50 111 50 50> 407 65<257.5 308 257.5 308> 446 20G<50 99 99 99>
VStem: 50 61<0 271 343 353>
LayerCount: 2
Fore
SplineSet
131 385 m 0xb0
 155 422 207 472 308 472 c 1
 308 407 l 1xd0
 136 407 111 271 111 271 c 1
 111 0 l 1
 50 0 l 1
 50 466 l 1
 99 466 l 1
 99 466 111 391 111 353 c 2
 111 343 l 1
 111 343 118 366 131 385 c 0xb0
EndSplineSet
Validated: 1
EndChar

StartChar: s
Encoding: 115 115 91
Width: 394
Flags: MW
HStem: -11 53<144 228 144 241.5> 427 51<181.5 240 156 245.5>
VStem: 32 59<326.5 382 326.5 394> 305 59<103.5 153>
LayerCount: 2
Fore
SplineSet
346 447 m 1
 334 413 l 1
 334 413 277 427 214 427 c 0
 149 427 91 414 91 350 c 0
 91 303 144 291 204 273 c 0
 300 243 364 223 364 124 c 0
 364 35 287 -11 196 -11 c 0
 83 -11 30 33 30 33 c 1
 45 66 l 1
 45 66 110 42 178 42 c 0
 278 42 305 79 305 128 c 0
 305 178 267 194 191 213 c 0
 115 233 32 261 32 347 c 0
 32 441 111 478 201 478 c 0
 279 478 346 447 346 447 c 1
EndSplineSet
Validated: 1
EndChar

StartChar: t
Encoding: 116 116 92
Width: 343
Flags: MW
HStem: -11 50<215 253.5 215 255> 413 53<20 104 20 104 257.5 283> 611 20G<120 165 165 165>
VStem: 104 61<146 413 413 413 466 517 517 548.5>
LayerCount: 2
Fore
SplineSet
320 61 m 1
 333 26 l 1
 333 26 281 -11 229 -11 c 0
 149 -11 104 37 104 146 c 2
 104 413 l 1
 20 413 l 1
 20 466 l 1
 104 466 l 1
 104 517 l 2
 104 580 120 631 120 631 c 1
 165 631 l 1
 165 466 l 1
 283 466 l 1
 283 413 l 1
 232 413 193 416 165 420 c 1
 165 146 l 2
 165 56 196 39 234 39 c 0
 273 39 320 61 320 61 c 1
EndSplineSet
Validated: 1
EndChar

StartChar: u
Encoding: 117 117 93
Width: 457
Flags: MW
HStem: -11 51<171 232.5 171 235> 0 21G<358 407 358 358> 446 20G<50 110 110 110 346 407 407 407>
VStem: 50 60<200 466> 346 61<134 466 0 466>
LayerCount: 2
Fore
SplineSet
201 -11 m 0xb8
 88 -11 50 73 50 200 c 2
 50 466 l 1
 110 466 l 1
 110 200 l 2
 110 114 137 40 205 40 c 0xb8
 260 40 304 79 346 134 c 1
 346 466 l 1
 407 466 l 1
 407 0 l 1
 358 0 l 1x78
 358 0 353 36 349 71 c 1
 321 37 269 -11 201 -11 c 0xb8
EndSplineSet
Validated: 1
EndChar

StartChar: v
Encoding: 118 118 94
Width: 408
Flags: MW
HStem: 0 21G<182 233 182 182> 446 20G<0 62 62 62 346 408 408 408>
LayerCount: 2
Fore
SplineSet
62 466 m 1
 208 99 l 1
 346 466 l 1
 408 466 l 1
 233 0 l 1
 182 0 l 1
 0 466 l 1
 62 466 l 1
EndSplineSet
Validated: 1
EndChar

StartChar: w
Encoding: 119 119 95
Width: 624
Flags: MW
HStem: 0 21G<144 193 144 144 431 480 431 431> 446 20G<0 59 59 59 565 624 624 624>
LayerCount: 2
Fore
SplineSet
284 422 m 1
 340 422 l 1
 454 108 l 1
 565 466 l 1
 624 466 l 1
 480 0 l 1
 431 0 l 1
 312 327 l 1
 193 0 l 1
 144 0 l 1
 0 466 l 1
 59 466 l 1
 170 108 l 1
 284 422 l 1
EndSplineSet
Validated: 1
EndChar

StartChar: z
Encoding: 122 122 96
Width: 378
Flags: MW
HStem: 0 55<93 358 93 358> 411 55<29 355 29 282>
LayerCount: 2
Fore
SplineSet
29 411 m 1
 29 466 l 1
 355 466 l 1
 355 412 l 1
 93 55 l 1
 358 55 l 1
 358 0 l 1
 20 0 l 1
 20 54 l 1
 282 411 l 1
 29 411 l 1
EndSplineSet
Validated: 1
EndChar

StartChar: zero
Encoding: 48 48 97
Width: 565
Flags: MW
HStem: -13 61<227 337 227 362> 651 60<227 337>
VStem: 40 73<238.5 460 238.5 474.5> 451 74<238.5 460>
LayerCount: 2
Fore
SplineSet
282 711 m 0
 442 711 525 600 525 349 c 0
 525 99 442 -13 282 -13 c 0
 122 -13 40 99 40 349 c 0
 40 600 122 711 282 711 c 0
282 48 m 0
 392 48 451 128 451 349 c 0
 451 571 392 651 282 651 c 0
 172 651 113 571 113 349 c 0
 113 128 172 48 282 48 c 0
EndSplineSet
Validated: 1
EndChar

StartChar: one
Encoding: 49 49 98
Width: 269
Flags: MW
HStem: 0 21G<153 219 153 153> 680 20G<178 219 219 219>
VStem: 153 66<0 629 629 629>
LayerCount: 2
Fore
SplineSet
178 700 m 1
 219 700 l 1
 219 0 l 1
 153 0 l 1
 153 629 l 1
 20 587 l 1
 20 635 l 1
 178 700 l 1
EndSplineSet
Validated: 1
EndChar

StartChar: two
Encoding: 50 50 99
Width: 466
Flags: MW
HStem: 0 61<94 428 30 30> 650 61<183.5 283>
VStem: 366 70<435.5 564.5>
LayerCount: 2
Fore
SplineSet
436 527 m 0
 436 304 146 275 94 61 c 1
 428 61 l 1
 428 0 l 1
 30 0 l 1
 30 61 l 2
 30 273 366 347 366 524 c 0
 366 605 340 650 226 650 c 0
 141 650 69 594 69 594 c 1
 44 636 l 1
 44 636 124 711 239 711 c 0
 367 711 436 649 436 527 c 0
EndSplineSet
Validated: 1
EndChar

StartChar: three
Encoding: 51 51 100
Width: 486
Flags: MW
HStem: -13 59<166 288.5 164 298> 355 60<234 238 238 243> 639 61<42 345 42 427 42 427>
VStem: 386 70<161.5 240.5>
LayerCount: 2
Fore
SplineSet
238 415 m 2
 298 415 456 394 456 195 c 0
 456 67 365 -13 231 -13 c 0
 101 -13 20 48 20 48 c 1
 38 89 l 1
 38 89 109 46 219 46 c 0
 358 46 386 126 386 197 c 0
 386 284 356 355 243 355 c 2
 135 355 l 1
 135 394 l 1
 345 639 l 1
 42 639 l 1
 42 700 l 1
 427 700 l 1
 427 639 l 1
 234 415 l 1
 238 415 l 2
EndSplineSet
Validated: 1
EndChar

StartChar: four
Encoding: 52 52 101
Width: 492
Flags: MW
HStem: 0 21G<339 403 339 339> 197 61<91 339 20 20 403 472> 446 20G<339 403 403 403> 692 20G<281 352 352 352>
VStem: 339 64<0 197 0 197 258 466>
LayerCount: 2
Fore
SplineSet
472 258 m 1
 472 197 l 1
 403 197 l 1
 403 0 l 1
 339 0 l 1
 339 197 l 1
 20 197 l 1
 20 258 l 1
 281 712 l 1
 352 712 l 1
 91 258 l 1
 339 258 l 1
 339 466 l 1
 403 466 l 1
 403 258 l 1
 472 258 l 1
EndSplineSet
Validated: 1
EndChar

StartChar: five
Encoding: 53 53 102
Width: 478
Flags: MW
HStem: -13 59<151 273.5 148.5 282.5> 384 59<212 284> 639 61<144 439 144 144>
VStem: 377 71<188 270>
LayerCount: 2
Fore
SplineSet
86 700 m 1
 439 700 l 1
 439 639 l 1
 144 639 l 1
 126 416 l 1
 143 427 187 443 237 443 c 0
 350 443 448 367 448 222 c 0
 448 93 349 -13 216 -13 c 0
 86 -13 30 48 30 48 c 1
 51 89 l 1
 51 89 93 46 204 46 c 0
 343 46 377 158 377 218 c 0
 377 322 335 384 233 384 c 0
 147 384 98 342 98 342 c 1
 58 350 l 1
 86 700 l 1
EndSplineSet
Validated: 1
EndChar

StartChar: six
Encoding: 54 54 103
Width: 497
Flags: MW
HStem: -13 55<201.5 291 201.5 311.5> 378 57<221.5 316> 655 56<231 334 230 337>
VStem: 40 61<337 360 337 480.5> 403 64<156.5 265>
LayerCount: 2
Fore
SplineSet
254 -13 m 0
 65 -13 40 160 40 345 c 0
 40 616 169 711 291 711 c 0
 377 711 437 655 437 655 c 1
 414 618 l 1
 414 618 371 655 303 655 c 0
 159 655 101 537 101 360 c 2
 101 337 l 1
 104 337 l 1
 120 374 176 435 267 435 c 0
 386 435 467 353 467 216 c 0
 467 75 369 -13 254 -13 c 0
279 378 m 0
 153 378 112 261 106 237 c 1
 116 133 149 42 254 42 c 0
 328 42 403 97 403 216 c 0
 403 314 353 378 279 378 c 0
EndSplineSet
Validated: 1
EndChar

StartChar: seven
Encoding: 55 55 104
Width: 455
Flags: MW
HStem: 0 21G<159 229 159 159> 639 61<20 365 20 435 20 435>
LayerCount: 2
Fore
SplineSet
20 700 m 1
 435 700 l 1
 435 639 l 1
 229 0 l 1
 159 0 l 1
 365 639 l 1
 20 639 l 1
 20 700 l 1
EndSplineSet
Validated: 1
EndChar

StartChar: eight
Encoding: 56 56 105
Width: 515
Flags: MW
HStem: -13 58<197 314.5 197 328> 654 57<224.5 294.5>
VStem: 35 63<140 224 140 228.5> 68 64<514 587.5 514 591.5> 383 62<504 581> 415 65<135.5 208.5>
LayerCount: 2
Fore
SplineSet
322 376 m 1xd8
 429 319 480 266 480 172 c 0
 480 60 400 -13 256 -13 c 0
 113 -13 35 58 35 167 c 0xe4
 35 290 152 357 191 375 c 1
 110 421 68 469 68 549 c 0
 68 634 129 711 257 711 c 0
 379 711 445 641 445 546 c 0
 445 457 362 398 322 376 c 1xd8
132 549 m 0xd8
 132 479 185 442 266 405 c 0
 267 405 268 404 269 404 c 0
 307 419 383 465 383 543 c 0
 383 619 332 654 257 654 c 0
 192 654 132 626 132 549 c 0xd8
257 45 m 0
 372 45 415 99 415 172 c 0
 415 245 376 287 257 341 c 0
 253 343 249 345 245 347 c 1
 212 334 98 273 98 175 c 0xe4
 98 105 137 45 257 45 c 0
EndSplineSet
Validated: 1
EndChar

StartChar: nine
Encoding: 57 57 106
Width: 497
Flags: MW
HStem: -13 56<163 266> 263 57<181 275.5> 656 55<206 295.5>
VStem: 30 64<433 541.5 433 552.5> 396 61<338 361 361 361>
LayerCount: 2
Fore
SplineSet
243 711 m 0
 432 711 457 538 457 353 c 0
 457 82 328 -13 206 -13 c 0
 120 -13 60 43 60 43 c 1
 83 80 l 1
 83 80 126 43 194 43 c 0
 338 43 396 161 396 338 c 2
 396 361 l 1
 393 361 l 1
 377 324 321 263 230 263 c 0
 111 263 30 345 30 482 c 0
 30 623 128 711 243 711 c 0
218 320 m 0
 344 320 385 437 391 461 c 1
 381 565 348 656 243 656 c 0
 169 656 94 601 94 482 c 0
 94 384 144 320 218 320 c 0
EndSplineSet
Validated: 1
EndChar

StartChar: Euro
Encoding: 8364 8364 107
Width: 542
Flags: MW
HStem: -13 61<298.5 398 298.5 404.5> 261 48<14 88 14 92 0 88 163 163 163 410> 381 48<14 88 0 92 163 438> 651 60<303 386 283 387.5>
VStem: 88 71<309 343 309 381 309 381>
LayerCount: 2
Fore
SplineSet
353 48 m 0
 443 48 495 93 495 93 c 1
 522 55 l 1
 522 55 474 -13 335 -13 c 0
 222 -13 114 53 92 261 c 1
 0 261 l 1
 14 309 l 1
 88 309 l 1
 88 320 88 331 88 343 c 0
 88 356 88 369 88 381 c 1
 0 381 l 1
 14 429 l 1
 92 429 l 1
 117 650 237 711 329 711 c 0
 443 711 493 649 493 649 c 1
 469 613 l 1
 469 613 424 651 351 651 c 0
 255 651 182 594 163 429 c 1
 452 429 l 1
 438 381 l 1
 160 381 l 1
 159 369 159 356 159 343 c 0
 159 331 159 320 159 309 c 1
 424 309 l 1
 410 261 l 1
 163 261 l 1
 179 107 244 48 353 48 c 0
EndSplineSet
Validated: 1
EndChar

StartChar: dollar
Encoding: 36 36 108
Width: 477
Flags: MW
HStem: -91 21G<215 263 215 215> -11 60<213 215 213 263> 652 60<263 266 263 263.5> 756 20G<215 263 263 263>
VStem: 42 69<496.5 566.5 496.5 579.5> 215 48<-91 -11 -91 -11 53 315 406 648 648 648 712 776> 378 69<154 210.5>
LayerCount: 2
Fore
SplineSet
263 389 m 1
 397 343 447 283 447 176 c 0
 447 76 376 -1 263 -11 c 1
 263 -91 l 1
 215 -91 l 1
 215 -11 l 1
 85 -4 30 54 30 54 c 1
 53 92 l 1
 53 92 125 49 213 49 c 2
 213 49 214 49 215 49 c 1
 215 332 l 1
 115 369 42 426 42 524 c 0
 42 635 118 699 215 711 c 1
 215 776 l 1
 263 776 l 1
 263 712 l 1
 360 707 422 667 422 667 c 1
 402 624 l 1
 402 624 338 652 266 652 c 0
 265 652 264 652 263 652 c 1
 263 389 l 1
111 529 m 0
 111 464 150 432 215 406 c 1
 215 648 l 1
 154 637 111 604 111 529 c 0
263 53 m 1
 352 68 378 125 378 183 c 0
 378 238 351 280 263 315 c 1
 263 53 l 1
EndSplineSet
Validated: 1
EndChar

StartChar: ampersand
Encoding: 38 38 109
Width: 623
Flags: MW
HStem: -13 56<211 294> 655 56<234 297>
VStem: 30 65<130 210 130 219.5> 102 64<542 591.5 542 612> 369 58<542.5 603>
LayerCount: 2
Fore
SplineSet
555 333 m 1
 555 248 538 182 509 131 c 1
 570 76 613 40 613 40 c 1
 586 1 l 1
 559 15 520 45 476 83 c 1
 417 16 334 -13 254 -13 c 0
 107 -13 30 59 30 173 c 0
 30 266 92 319 183 386 c 1
 134 449 102 507 102 559 c 0
 102 665 182 711 270 711 c 0
 354 711 427 665 427 580 c 0
 427 497 370 448 265 377 c 1
 295 341 328 306 361 273 c 0
 397 237 433 203 465 172 c 1
 495 230 504 294 504 333 c 1
 555 333 l 1
270 655 m 0
 198 655 166 619 166 564 c 0
 166 520 194 468 235 415 c 1
 309 471 369 508 369 577 c 0
 369 629 324 655 270 655 c 0
258 43 m 0
 340 43 396 77 433 122 c 1
 394 159 352 200 311 243 c 0
 277 278 245 313 216 346 c 1
 145 292 95 246 95 174 c 0
 95 86 164 43 258 43 c 0
EndSplineSet
Validated: 1
EndChar

StartChar: trademark
Encoding: 8482 8482 110
Width: 588
Flags: MW
HStem: 405 21G<93 140 93 93 262 308 262 262 522 568 522 522> 659 41<0 234 0 93 140 140 140 234>
VStem: 93 47<405 659 405 659> 262 46<405 612 405 700> 522 46<405 609 609 609 405 700>
LayerCount: 2
Fore
SplineSet
418 501 m 1
 522 700 l 1
 568 700 l 1
 568 405 l 1
 522 405 l 1
 522 609 l 1
 438 450 l 1
 400 450 l 1
 308 612 l 1
 308 405 l 1
 262 405 l 1
 262 700 l 1
 308 700 l 1
 418 501 l 1
0 659 m 1
 0 700 l 1
 234 700 l 1
 234 659 l 1
 140 659 l 1
 140 405 l 1
 93 405 l 1
 93 659 l 1
 0 659 l 1
EndSplineSet
Validated: 1
EndChar

StartChar: copyright
Encoding: 169 169 111
Width: 766
Flags: MW
HStem: -13 34<300.5 464.5 300.5 476.5> 108 49<359 437.5> 533 49<361 428.5 351 430.5> 676 35<306 460>
VStem: 30 44<238.5 459.5 238.5 467.5> 202 58<272.5 415 272.5 434> 691 45<238.5 459.5>
LayerCount: 2
Fore
SplineSet
405 157 m 0
 472 157 507 188 507 188 c 1
 529 157 l 1
 529 157 482 108 393 108 c 0
 303 108 202 167 202 341 c 0
 202 527 310 582 392 582 c 0
 465 582 520 536 520 536 c 1
 503 506 l 1
 503 506 458 533 403 533 c 0
 319 533 260 489 260 341 c 0
 260 204 313 157 405 157 c 0
383 711 m 0
 578 711 736 583 736 349 c 0
 736 119 570 -13 383 -13 c 0
 200 -13 30 116 30 349 c 0
 30 586 199 711 383 711 c 0
383 21 m 0
 546 21 691 128 691 349 c 0
 691 570 537 676 383 676 c 0
 229 676 74 570 74 349 c 0
 74 128 218 21 383 21 c 0
EndSplineSet
Validated: 1
EndChar

StartChar: registered
Encoding: 174 174 112
Width: 766
Flags: MW
HStem: -13 34<300.5 464.5 300.5 476.5> 118 233<249 357 249 357 300 537 300 483> 305 46<300 357 357 362 300 357> 528 46<300 357 300 300> 676 35<306 460>
VStem: 30 44<238.5 459.5 238.5 467.5> 249 51<118 305 118 351 351 528> 487 50<409 480.5> 691 45<238.5 459.5>
LayerCount: 2
Fore
SplineSet
537 442 m 0xdf80
 537 376 504 332 439 314 c 1
 537 118 l 1
 483 118 l 1xdf80
 388 306 l 1
 380 305 371 305 362 305 c 2
 300 305 l 1xbf80
 300 118 l 1
 249 118 l 1
 249 574 l 1
 362 574 l 2
 474 574 537 532 537 442 c 0xdf80
357 351 m 2
 424 351 487 368 487 442 c 0
 487 519 421 528 357 528 c 2
 300 528 l 1
 300 351 l 1
 357 351 l 2
383 711 m 0
 578 711 736 583 736 349 c 0
 736 119 570 -13 383 -13 c 0
 200 -13 30 116 30 349 c 0
 30 586 199 711 383 711 c 0
383 21 m 0
 546 21 691 128 691 349 c 0
 691 570 537 676 383 676 c 0
 229 676 74 570 74 349 c 0
 74 128 218 21 383 21 c 0
EndSplineSet
Validated: 1
EndChar

StartChar: at
Encoding: 64 64 113
Width: 854
Flags: MW
HStem: -75 52<356 490> 106 55<350 439 597 634> 550 52<410.5 481.5> 729 50<385.5 548.5>
VStem: 30 61<207 473 207 476.5> 227 65<280.5 375.5 280.5 385> 774 50<341 537>
LayerCount: 2
Fore
SplineSet
434 -23 m 0
 548 -23 654 28 714 101 c 1
 743 75 l 1
 665 -27 546 -75 434 -75 c 0
 219 -75 30 64 30 337 c 0
 30 616 249 779 462 779 c 0
 693 779 824 639 824 443 c 0
 824 239 694 106 605 106 c 0
 578 106 525 119 532 221 c 1
 532 221 495 106 383 106 c 0
 306 106 227 168 227 312 c 0
 227 458 326 602 464 602 c 0
 517 602 550 584 571 567 c 1
 574 590 l 1
 633 590 l 1
 590 240 l 2
 585 203 581 161 613 161 c 0
 655 161 774 230 774 443 c 0
 774 631 635 729 462 729 c 0
 309 729 91 609 91 337 c 0
 91 77 278 -23 434 -23 c 0
547 358 m 1
 565 517 l 1
 536 544 499 550 464 550 c 0
 357 550 292 434 292 317 c 0
 292 244 308 161 392 161 c 0
 500 161 547 358 547 358 c 1
EndSplineSet
Validated: 33
EndChar

StartChar: exclam
Encoding: 33 33 114
Width: 202
Flags: MW
HStem: -13 98<87 115> 680 20G<67 136 136 136>
VStem: 50 102<22.5 49.5> 67 69<468 700>
LayerCount: 2
Fore
SplineSet
152 36 m 0xe0
 152 9 129 -13 101 -13 c 0
 73 -13 50 9 50 36 c 0
 50 63 73 85 101 85 c 0
 129 85 152 63 152 36 c 0xe0
136 700 m 1xd0
 136 468 l 2
 136 362 126 142 126 142 c 1
 76 142 l 1
 76 142 67 362 67 468 c 2
 67 700 l 1
 136 700 l 1xd0
EndSplineSet
Validated: 1
EndChar

StartChar: period
Encoding: 46 46 115
Width: 162
Flags: MW
HStem: -13 98<67 95.5>
VStem: 30 102<22.5 49.5>
LayerCount: 2
Fore
SplineSet
132 36 m 0
 132 9 110 -13 81 -13 c 0
 53 -13 30 9 30 36 c 0
 30 63 53 85 81 85 c 0
 110 85 132 63 132 36 c 0
EndSplineSet
Validated: 1
EndChar

StartChar: comma
Encoding: 44 44 116
Width: 163
Flags: MW
HStem: -109 21G<60 60> -13 98
LayerCount: 2
Fore
SplineSet
76 -13 m 1
 50 -11 30 10 30 36 c 0
 30 63 53 85 81 85 c 0
 109 85 132 63 132 36 c 1
 134 18 131 -2 124 -23 c 0
 109 -72 60 -109 60 -109 c 1
 36 -87 l 1
 36 -87 68 -55 76 -13 c 1
EndSplineSet
Validated: 33
EndChar

StartChar: guillemotleft
Encoding: 171 171 117
Width: 382
Flags: MW
HStem: -12 21G<196 196> 473 20G
LayerCount: 2
Fore
SplineSet
228 473 m 1
 91 236 l 1
 224 5 l 1
 196 -12 l 1
 196 -12 135 42 20 240 c 1
 135 439 194 493 194 493 c 1
 228 473 l 1
362 22 m 1
 328 2 l 1
 328 2 276 42 161 241 c 1
 276 440 329 479 329 479 c 1
 358 462 l 1
 232 245 l 1
 362 22 l 1
EndSplineSet
Validated: 1
EndChar

StartChar: paragraph
Encoding: 182 182 118
Width: 462
Flags: MW
HStem: -217 21G<231 287 231 231 356 412 356 356> 639 61<287 356 287 287>
VStem: 231 56<-217 315 315 315> 356 56<-217 639 639 639>
LayerCount: 2
Fore
SplineSet
231 700 m 2
 412 700 l 1
 412 -217 l 1
 356 -217 l 1
 356 639 l 1
 287 639 l 1
 287 -217 l 1
 231 -217 l 1
 231 315 l 1
 134 315 30 394 30 506 c 0
 30 626 134 700 231 700 c 2
EndSplineSet
Validated: 1
EndChar

StartChar: parenright
Encoding: 41 41 119
Width: 260
Flags: MW
HStem: -176 21G<29 29> 690 20G<29 29>
VStem: 151 69<125.5 408.5>
LayerCount: 2
Fore
SplineSet
151 267 m 0
 151 550 5 680 5 680 c 1
 29 710 l 1
 29 710 220 610 220 267 c 0
 220 -76 29 -176 29 -176 c 1
 5 -146 l 1
 5 -146 151 -16 151 267 c 0
EndSplineSet
Validated: 1
EndChar

StartChar: asterisk
Encoding: 42 42 120
Width: 377
Flags: MW
HStem: 411 21G<133 133 244 244> 534 55<30 52 30 155 30 52 325 347> 693 20G<133 133 244 244>
LayerCount: 2
Fore
SplineSet
86 438 m 1
 107 476 135 511 155 534 c 1
 30 534 l 1
 30 589 l 1
 74 589 117 583 148 577 c 1
 86 685 l 1
 133 713 l 1
 155 675 171 634 182 605 c 1
 244 713 l 1
 292 685 l 1
 270 647 243 613 223 589 c 1
 347 589 l 1
 347 534 l 1
 303 534 260 540 230 546 c 1
 292 438 l 1
 244 411 l 1
 222 449 206 489 196 518 c 1
 133 411 l 1
 86 438 l 1
EndSplineSet
Validated: 1
EndChar

StartChar: bracketleft
Encoding: 91 91 121
Width: 261
Flags: MW
HStem: -167 58<113 256 113 256> 642 58<113 256 113 113>
VStem: 50 63<-109 642 -109 700 -109 700> 50 206<-167 -109 642 700>
LayerCount: 2
Fore
SplineSet
256 -167 m 1xd0
 50 -167 l 1
 50 700 l 1
 256 700 l 1
 256 642 l 1xd0
 113 642 l 1
 113 -109 l 1xe0
 256 -109 l 1
 256 -167 l 1xd0
EndSplineSet
Validated: 1
EndChar

StartChar: bracketright
Encoding: 93 93 122
Width: 261
Flags: MW
HStem: -167 58<5 148 5 211 5 148> 642 58<5 148 5 211>
VStem: 5 206<-167 -109 -109 -109 642 700> 148 63<-109 642 642 642>
LayerCount: 2
Fore
SplineSet
211 -167 m 1xe0
 5 -167 l 1
 5 -109 l 1xe0
 148 -109 l 1
 148 642 l 1xd0
 5 642 l 1
 5 700 l 1
 211 700 l 1
 211 -167 l 1xe0
EndSplineSet
Validated: 1
EndChar

StartChar: percent
Encoding: 37 37 123
Width: 842
Flags: MW
HStem: -13 55<598.5 668.5 598.5 678> 0 21G<119 194 119 119> 296 55<172 241.5 172 251.5> 346 56<604.5 668> 655 56<178 241.5> 680 20G<648 722 722 722>
VStem: 30 65<447.5 558.5 447.5 571.5> 320 65<447.5 558.5> 457 65<138.5 249.5 138.5 262.5> 747 65<138.5 249.5>
LayerCount: 2
Fore
SplineSet
209 711 m 0xabc0
 299 711 385 640 385 503 c 0
 385 366 297 296 206 296 c 0
 116 296 30 366 30 503 c 0
 30 640 118 711 209 711 c 0xabc0
206 351 m 0
 277 351 320 392 320 503 c 0
 320 614 274 655 209 655 c 0
 147 655 95 614 95 503 c 0
 95 392 138 351 206 351 c 0
635 402 m 0x97c0
 726 402 812 331 812 194 c 0
 812 57 723 -13 633 -13 c 0
 543 -13 457 57 457 194 c 0
 457 331 545 402 635 402 c 0x97c0
633 42 m 0
 704 42 747 83 747 194 c 0
 747 305 701 346 635 346 c 0
 574 346 522 305 522 194 c 0
 522 83 564 42 633 42 c 0
722 700 m 1
 194 0 l 1
 119 0 l 1x67c0
 648 700 l 1
 722 700 l 1
EndSplineSet
Validated: 1
EndChar

StartChar: equal
Encoding: 61 61 124
Width: 500
Flags: MW
HStem: 162 60<20 480 20 480> 377 61<20 480 20 480>
LayerCount: 2
Fore
SplineSet
20 438 m 1
 480 438 l 1
 480 377 l 1
 20 377 l 1
 20 438 l 1
20 222 m 1
 480 222 l 1
 480 162 l 1
 20 162 l 1
 20 222 l 1
EndSplineSet
Validated: 1
EndChar

StartChar: plus
Encoding: 43 43 125
Width: 500
Flags: MW
HStem: 71 21G<218 282 218 218> 270 61<20 218 20 218 282 480> 510 20G<218 282 282 282>
VStem: 218 64<71 270 71 270 331 530>
LayerCount: 2
Fore
SplineSet
282 331 m 1
 480 331 l 1
 480 270 l 1
 282 270 l 1
 282 71 l 1
 218 71 l 1
 218 270 l 1
 20 270 l 1
 20 331 l 1
 218 331 l 1
 218 530 l 1
 282 530 l 1
 282 331 l 1
EndSplineSet
Validated: 1
EndChar

StartChar: hyphen
Encoding: 45 45 126
Width: 340
Flags: MW
HStem: 230 61<20 320 20 320>
LayerCount: 2
Fore
SplineSet
20 291 m 1
 320 291 l 1
 320 230 l 1
 20 230 l 1
 20 291 l 1
EndSplineSet
Validated: 1
EndChar

StartChar: notequal
Encoding: 8800 8800 127
Width: 580
Flags: MW
HStem: 73 139<52 133 52 52> 151 61<20 121 20 173 254 560 20 201> 387 61<20 326 20 378 20 406 459 560> 387 142<20 530 406 530 449 530 449 560>
LayerCount: 2
Fore
SplineSet
201 151 m 1x60
 133 73 l 1
 52 73 l 1xa0
 121 151 l 1
 20 151 l 1x60
 20 212 l 1
 173 212 l 1
 326 387 l 1
 20 387 l 1
 20 448 l 1
 378 448 l 1xa0
 449 529 l 1
 530 529 l 1x90
 459 448 l 1
 560 448 l 1
 560 387 l 1
 406 387 l 1
 254 212 l 1
 560 212 l 1
 560 151 l 1
 201 151 l 1x60
EndSplineSet
Validated: 1
EndChar

StartChar: divide
Encoding: 247 247 128
Width: 580
Flags: MW
HStem: 51 93<276.5 303.5> 270 61<20 560 20 560> 457 93<276.5 303.5>
VStem: 241 97<85 111 490.5 516>
CounterMasks: 1 e0
LayerCount: 2
Fore
SplineSet
20 331 m 1
 560 331 l 1
 560 270 l 1
 20 270 l 1
 20 331 l 1
338 503 m 0
 338 478 317 457 290 457 c 0
 263 457 241 478 241 503 c 0
 241 529 263 550 290 550 c 0
 317 550 338 529 338 503 c 0
338 98 m 0
 338 72 317 51 290 51 c 0
 263 51 241 72 241 98 c 0
 241 124 263 144 290 144 c 0
 317 144 338 124 338 98 c 0
EndSplineSet
Validated: 1
EndChar

StartChar: plusminus
Encoding: 177 177 129
Width: 580
Flags: MW
HStem: 53 61<20 560 20 560> 392 61<20 258 20 258 322 560> 631 20G<258 322 322 322>
VStem: 258 64<194 392 194 392 453 651>
LayerCount: 2
Fore
SplineSet
322 453 m 1
 560 453 l 1
 560 392 l 1
 322 392 l 1
 322 194 l 1
 258 194 l 1
 258 392 l 1
 20 392 l 1
 20 453 l 1
 258 453 l 1
 258 651 l 1
 322 651 l 1
 322 453 l 1
20 114 m 1
 560 114 l 1
 560 53 l 1
 20 53 l 1
 20 114 l 1
EndSplineSet
Validated: 1
EndChar

StartChar: lessequal
Encoding: 8804 8804 130
Width: 587
Flags: MW
HStem: 0 61<30 557 30 557> 553 20G<557 557>
LayerCount: 2
Fore
SplineSet
124 345 m 1
 557 172 l 1
 557 105 l 1
 30 319 l 1
 30 369 l 1
 557 573 l 1
 557 504 l 1
 124 345 l 1
30 61 m 1
 557 61 l 1
 557 0 l 1
 30 0 l 1
 30 61 l 1
EndSplineSet
Validated: 1
EndChar

StartChar: greaterequal
Encoding: 8805 8805 131
Width: 587
Flags: MW
HStem: 0 61<30 557 30 557> 553 20G<30 30>
LayerCount: 2
Fore
SplineSet
463 345 m 1
 30 504 l 1
 30 573 l 1
 557 369 l 1
 557 319 l 1
 30 105 l 1
 30 172 l 1
 463 345 l 1
30 61 m 1
 557 61 l 1
 557 0 l 1
 30 0 l 1
 30 61 l 1
EndSplineSet
Validated: 1
EndChar

StartChar: multiply
Encoding: 215 215 132
Width: 522
Flags: MW
HStem: 60 21G<65 65 457 457> 522 20G<65 65 457 457>
LayerCount: 2
Fore
SplineSet
261 346 m 1
 457 542 l 1
 502 497 l 1
 306 301 l 1
 502 105 l 1
 457 60 l 1
 261 256 l 1
 65 60 l 1
 20 105 l 1
 216 301 l 1
 20 497 l 1
 65 542 l 1
 261 346 l 1
EndSplineSet
Validated: 1
EndChar

StartChar: A
Encoding: 65 65 133
Width: 569
Flags: MW
HStem: 0 21G<20 84 20 20 481 549 481 481> 212 57<169 388 169 408 151 388> 680 20G<242 306 306 306>
LayerCount: 2
Fore
SplineSet
481 0 m 1
 408 212 l 1
 151 212 l 1
 84 0 l 1
 20 0 l 1
 242 700 l 1
 306 700 l 1
 549 0 l 1
 481 0 l 1
169 269 m 1
 388 269 l 1
 274 599 l 1
 169 269 l 1
EndSplineSet
Validated: 1
EndChar

StartChar: C
Encoding: 67 67 134
Width: 558
Flags: MW
HStem: -13 61<275 394.5> 650 61<279 380 259 388>
VStem: 40 71<235.5 458.5 235.5 488.5>
LayerCount: 2
Fore
SplineSet
347 48 m 0
 452 48 518 94 518 94 c 1
 538 55 l 1
 538 55 464 -13 325 -13 c 0
 184 -13 40 70 40 343 c 0
 40 634 195 711 323 711 c 0
 437 711 523 649 523 649 c 1
 503 610 l 1
 503 610 431 650 345 650 c 0
 213 650 111 574 111 343 c 0
 111 128 203 48 347 48 c 0
EndSplineSet
Validated: 1
EndChar

StartChar: E
Encoding: 69 69 135
Width: 492
Flags: MW
HStem: 0 61<113 462 113 462> 331 61<113 407 113 407> 639 61<113 458 113 113>
VStem: 50 63<61 331 392 639>
LayerCount: 2
Fore
SplineSet
462 0 m 1
 50 0 l 1
 50 700 l 1
 458 700 l 1
 458 639 l 1
 113 639 l 1
 113 392 l 1
 407 392 l 1
 407 331 l 1
 113 331 l 1
 113 61 l 1
 462 61 l 1
 462 0 l 1
EndSplineSet
Validated: 1
EndChar

StartChar: M
Encoding: 77 77 136
Width: 730
Flags: MW
HStem: 0 21G<50 113 50 50 616 616 616 680> 680 20G<50 113 113 113 616 680 680 680>
VStem: 50 63<0 567> 616 64<0 559 559 559 0 700>
LayerCount: 2
Fore
SplineSet
113 0 m 1
 50 0 l 1
 50 700 l 1
 113 700 l 1
 372 206 l 1
 616 700 l 1
 680 700 l 1
 680 0 l 1
 616 0 l 1
 616 559 l 1
 402 132 l 1
 344 132 l 1
 113 567 l 1
 113 0 l 1
EndSplineSet
Validated: 1
EndChar

StartChar: O
Encoding: 79 79 137
Width: 647
Flags: MW
HStem: -13 61<269 379 269 404> 650 61<269 379>
VStem: 40 72<238.5 459.5 238.5 474> 536 71<238.5 459.5>
LayerCount: 2
Fore
SplineSet
324 711 m 0
 484 711 607 599 607 349 c 0
 607 99 484 -13 324 -13 c 0
 164 -13 40 99 40 349 c 0
 40 599 164 711 324 711 c 0
324 48 m 0
 434 48 536 128 536 349 c 0
 536 570 434 650 324 650 c 0
 214 650 112 570 112 349 c 0
 112 128 214 48 324 48 c 0
EndSplineSet
Validated: 1
EndChar

StartChar: P
Encoding: 80 80 138
Width: 533
Flags: MW
HStem: 0 21G<50 116 50 50> 286 61<116 233 116 233> 639 61<116 233 116 116>
VStem: 50 66<0 286 0 347 347 639> 434 69<430.5 561>
LayerCount: 2
Fore
SplineSet
50 700 m 1
 233 700 l 2
 406 700 503 634 503 496 c 0
 503 362 413 286 233 286 c 2
 116 286 l 1
 116 0 l 1
 50 0 l 1
 50 700 l 1
434 496 m 0
 434 626 331 639 233 639 c 2
 116 639 l 1
 116 347 l 1
 233 347 l 2
 335 347 434 365 434 496 c 0
EndSplineSet
Validated: 1
EndChar

StartChar: T
Encoding: 84 84 139
Width: 521
Flags: MW
HStem: 0 21G<229 292 229 229> 639 61<20 229 20 501 292 501 292 292>
VStem: 229 63<0 639 0 639>
LayerCount: 2
Fore
SplineSet
20 700 m 1
 501 700 l 1
 501 639 l 1
 292 639 l 1
 292 0 l 1
 229 0 l 1
 229 639 l 1
 20 639 l 1
 20 700 l 1
EndSplineSet
Validated: 1
EndChar

StartChar: afii10071
Encoding: 1105 1105 140
Width: 428
Flags: MW
HStem: -11 53<213 284> 229 54 428 50<201.5 267> 512 82<126 149.5 299.5 323>
VStem: 30 61<161.5 227 161.5 306.5> 95 85<541.5 564.5> 268 86<541.5 564.5> 337 61
LayerCount: 2
Fore
SplineSet
250 42 m 0xfd
 329 42 377 65 377 65 c 1
 390 30 l 1
 390 30 329 -11 239 -11 c 0
 117 -11 30 76 30 228 c 0
 30 385 130 478 233 478 c 0
 365 478 398 346 398 232 c 1
 91 227 l 1
 91 96 176 42 250 42 c 0xfd
233 428 m 0
 170 428 106 369 93 266 c 1
 112 269 180 279 337 283 c 1
 335 358 301 428 233 428 c 0
180 553 m 0
 180 530 161 512 138 512 c 0
 114 512 95 530 95 553 c 0
 95 576 114 594 138 594 c 0
 161 594 180 576 180 553 c 0
354 553 m 0xfe
 354 530 335 512 311 512 c 0
 288 512 268 530 268 553 c 0
 268 576 288 594 311 594 c 0
 335 594 354 576 354 553 c 0xfe
EndSplineSet
Validated: 1
EndChar

StartChar: a
Encoding: 97 97 141
Width: 443
Flags: MW
HStem: -5 51<156 205.5 156 209> 0 21G<344 393 344 344> 220 49<332 332> 421 51<184.5 256.5>
VStem: 35 61<92 156.5 92 157> 332 61<133 220 220 220 269 275 0 332.5>
LayerCount: 2
Fore
SplineSet
228 472 m 0xbc
 335 472 393 427 393 275 c 2
 393 0 l 1
 344 0 l 1x7c
 344 0 338 36 335 71 c 1
 304 39 244 -5 174 -5 c 0
 90 -5 35 41 35 114 c 0
 35 200 98 266 332 269 c 1
 332 275 l 2
 332 390 300 421 213 421 c 0
 150 421 77 394 77 394 c 1
 64 431 l 1
 64 431 141 472 228 472 c 0xbc
178 46 m 0xbc
 233 46 287 79 332 133 c 1
 332 220 l 1
 185 219 96 195 96 118 c 0
 96 66 134 46 178 46 c 0xbc
EndSplineSet
Validated: 1
EndChar

StartChar: c
Encoding: 99 99 142
Width: 396
Flags: MW
HStem: -11 51<197.5 274.5> 426 52<196.5 268.5 171.5 271.5>
VStem: 30 60<172.5 286.5 172.5 305.5>
LayerCount: 2
Fore
SplineSet
241 40 m 0
 314 40 363 67 363 67 c 1
 376 30 l 1
 376 30 323 -11 226 -11 c 0
 120 -11 30 75 30 229 c 0
 30 382 118 478 225 478 c 0
 312 478 366 437 366 437 c 1
 353 400 l 1
 353 400 303 426 240 426 c 0
 153 426 90 344 90 229 c 0
 90 116 154 40 241 40 c 0
EndSplineSet
Validated: 1
EndChar

StartChar: e
Encoding: 101 101 143
Width: 428
Flags: MW
HStem: -11 53<213 284> 229 54 428 50<201.5 267>
VStem: 30 61<161.5 227 161.5 306.5> 337 61
LayerCount: 2
Fore
SplineSet
250 42 m 0
 329 42 377 65 377 65 c 1
 390 30 l 1
 390 30 329 -11 239 -11 c 0
 117 -11 30 76 30 228 c 0
 30 385 130 478 233 478 c 0
 365 478 398 346 398 232 c 1
 91 227 l 1
 91 96 176 42 250 42 c 0
233 428 m 0
 170 428 106 369 93 266 c 1
 112 269 180 279 337 283 c 1
 335 358 301 428 233 428 c 0
EndSplineSet
Validated: 1
EndChar

StartChar: o
Encoding: 111 111 144
Width: 477
Flags: MW
HStem: -11 53<196.5 279 196.5 290> 425 53<203.5 278.5>
VStem: 30 63<168 298.5 168 314> 384 63<168 298.5>
LayerCount: 2
Fore
SplineSet
240 478 m 0
 346 478 447 395 447 233 c 0
 447 72 343 -11 237 -11 c 0
 131 -11 30 72 30 233 c 0
 30 395 134 478 240 478 c 0
237 42 m 0
 321 42 384 103 384 233 c 0
 384 364 317 425 240 425 c 0
 167 425 93 364 93 233 c 0
 93 103 156 42 237 42 c 0
EndSplineSet
Validated: 1
EndChar

StartChar: p
Encoding: 112 112 145
Width: 448
Flags: MW
HStem: -217 21G<50 50 50 111> -11 50<188.5 242.5 181.5 268.5> 427 51<223 289.5> 446 20G<50 99 99 99>
VStem: 50 61<-217 23 -217 75 75 332> 354 64<155 295.5>
LayerCount: 2
Fore
SplineSet
50 -217 m 1xec
 50 466 l 1
 99 466 l 1xdc
 99 466 105 430 108 396 c 1
 136 430 187 478 255 478 c 0
 378 478 418 368 418 252 c 0
 418 51 328 -11 209 -11 c 0
 168 -11 131 7 111 23 c 1
 111 -217 l 1
 50 -217 l 1xec
354 252 m 0
 354 339 329 427 250 427 c 0xec
 196 427 153 387 111 332 c 1
 111 75 l 1
 128 60 158 39 205 39 c 0
 280 39 354 58 354 252 c 0
EndSplineSet
Validated: 1
EndChar

StartChar: x
Encoding: 120 120 146
Width: 398
Flags: MW
HStem: 0 21G<0 71 0 0 327 398 327 327> 446 20G<11 80 80 80 318 387 387 387>
LayerCount: 2
Fore
SplineSet
195 292 m 1
 203 292 l 1
 318 466 l 1
 387 466 l 1
 239 241 l 1
 398 0 l 1
 327 0 l 1
 199 193 l 1
 71 0 l 1
 0 0 l 1
 159 241 l 1
 11 466 l 1
 80 466 l 1
 195 292 l 1
EndSplineSet
Validated: 1
EndChar

StartChar: y
Encoding: 121 121 147
Width: 408
Flags: MW
HStem: -220 52<81 116.5 81 134.5> 0 21G<159 200 159 159> 446 20G<0 66 66 66 345 408 408 408>
LayerCount: 2
Fore
SplineSet
345 466 m 1
 408 466 l 1
 242 -74 l 2
 214 -166 172 -220 97 -220 c 0
 64 -220 32 -205 11 -183 c 1
 32 -149 l 1
 46 -157 69 -168 93 -168 c 0
 140 -168 165 -121 183 -59 c 2
 200 0 l 1
 159 0 l 1
 0 466 l 1
 66 466 l 1
 213 38 l 1
 345 466 l 1
EndSplineSet
Validated: 1
EndChar

StartChar: X
Encoding: 88 88 148
Width: 550
Flags: MW
HStem: 0 21G<0 77 0 0 473 550 473 473> 680 20G<6 83 83 83 467 544 544 544>
LayerCount: 2
Fore
SplineSet
270 413 m 1
 280 413 l 1
 467 700 l 1
 544 700 l 1
 318 353 l 1
 550 0 l 1
 473 0 l 1
 275 301 l 1
 77 0 l 1
 0 0 l 1
 232 353 l 1
 6 700 l 1
 83 700 l 1
 270 413 l 1
EndSplineSet
Validated: 1
EndChar

StartChar: afii10034
Encoding: 1056 1056 149
Width: 533
Flags: MW
HStem: 0 21G<50 116 50 50> 286 61<116 233 116 233> 639 61<116 233 116 116>
VStem: 50 66<0 286 0 347 347 639> 434 69<430.5 561>
LayerCount: 2
Fore
SplineSet
50 700 m 1
 233 700 l 2
 406 700 503 634 503 496 c 0
 503 362 413 286 233 286 c 2
 116 286 l 1
 116 0 l 1
 50 0 l 1
 50 700 l 1
434 496 m 0
 434 626 331 639 233 639 c 2
 116 639 l 1
 116 347 l 1
 233 347 l 2
 335 347 434 365 434 496 c 0
EndSplineSet
Validated: 1
EndChar

StartChar: afii10087
Encoding: 1093 1093 150
Width: 398
Flags: MW
HStem: 0 21G<0 71 0 0 327 398 327 327> 446 20G<11 80 80 80 318 387 387 387>
LayerCount: 2
Fore
SplineSet
195 292 m 1
 203 292 l 1
 318 466 l 1
 387 466 l 1
 239 241 l 1
 398 0 l 1
 327 0 l 1
 199 193 l 1
 71 0 l 1
 0 0 l 1
 159 241 l 1
 11 466 l 1
 80 466 l 1
 195 292 l 1
EndSplineSet
Validated: 1
EndChar

StartChar: afii10085
Encoding: 1091 1091 151
Width: 408
Flags: MW
HStem: -220 52<81 116.5 81 134.5> 0 21G<159 200 159 159> 446 20G<0 66 66 66 345 408 408 408>
LayerCount: 2
Fore
SplineSet
345 466 m 1
 408 466 l 1
 242 -74 l 2
 214 -166 172 -220 97 -220 c 0
 64 -220 32 -205 11 -183 c 1
 32 -149 l 1
 46 -157 69 -168 93 -168 c 0
 140 -168 165 -121 183 -59 c 2
 200 0 l 1
 159 0 l 1
 0 466 l 1
 66 466 l 1
 213 38 l 1
 345 466 l 1
EndSplineSet
Validated: 1
EndChar

StartChar: B
Encoding: 66 66 152
Width: 558
Flags: MW
HStem: 0 61<113 276 113 276> 338 61<113 268 268 289 113 268> 640 60<113 113 113 254>
VStem: 50 63<61 338 399 640> 421 65<485 568.5> 449 37 449 69<138.5 252>
LayerCount: 2
Fore
SplineSet
486 527 m 0xf8
 486 386 370 378 370 378 c 1
 370 375 l 1
 370 375 518 360 518 202 c 0xf2
 518 75 456 0 276 0 c 2
 50 0 l 1
 50 700 l 1
 254 700 l 2
 428 700 486 626 486 527 c 0xf8
113 640 m 1
 113 399 l 1
 268 399 l 2
 352 399 421 443 421 527 c 0
 421 610 366 640 254 640 c 2
 113 640 l 1
276 61 m 2
 374 61 449 72 449 202 c 0xf4
 449 302 379 338 289 338 c 2
 113 338 l 1
 113 61 l 1
 276 61 l 2
EndSplineSet
Validated: 1
EndChar

StartChar: H
Encoding: 72 72 153
Width: 595
Flags: MW
HStem: 0 21G<50 113 50 50 481 545 481 481> 330 61<113 481 113 481> 680 20G<50 113 113 113 481 545 545 545>
VStem: 50 63<0 330 0 391 391 700> 481 64<0 330 330 330 391 700 0 700>
LayerCount: 2
Fore
SplineSet
481 391 m 1
 481 700 l 1
 545 700 l 1
 545 0 l 1
 481 0 l 1
 481 330 l 1
 113 330 l 1
 113 0 l 1
 50 0 l 1
 50 700 l 1
 113 700 l 1
 113 391 l 1
 481 391 l 1
EndSplineSet
Validated: 1
EndChar

StartChar: question
Encoding: 63 63 154
Width: 432
Flags: MW
HStem: -13 98<171 199> 650 61<149.5 240.5>
VStem: 134 102<22.5 49.5> 158 54<142 237 142 256.5> 342 70<422 553>
LayerCount: 2
Fore
SplineSet
236 36 m 0xe8
 236 9 213 -13 185 -13 c 0
 157 -13 134 9 134 36 c 0
 134 63 157 85 185 85 c 0
 213 85 236 63 236 36 c 0xe8
412 512 m 0
 412 310 212 332 212 142 c 1
 158 142 l 1xd8
 158 371 342 335 342 509 c 0
 342 597 289 650 192 650 c 0
 107 650 35 594 35 594 c 1
 10 636 l 1
 10 636 90 711 205 711 c 0
 332 711 412 636 412 512 c 0
EndSplineSet
Validated: 1
EndChar

StartChar: afii10023
Encoding: 1025 1025 155
Width: 492
Flags: MW
HStem: 0 61<113 462 113 462> 331 61<113 407 113 407> 639 61<113 458 113 113> 760 82<158 181.5 331.5 355>
VStem: 50 63<61 331 392 639> 127 85<789.5 812.5> 300 86<789.5 812.5>
LayerCount: 2
Fore
SplineSet
462 0 m 1
 50 0 l 1
 50 700 l 1
 458 700 l 1
 458 639 l 1
 113 639 l 1
 113 392 l 1
 407 392 l 1
 407 331 l 1
 113 331 l 1
 113 61 l 1
 462 61 l 1
 462 0 l 1
212 801 m 0
 212 778 193 760 170 760 c 0
 146 760 127 778 127 801 c 0
 127 824 146 842 170 842 c 0
 193 842 212 824 212 801 c 0
386 801 m 0
 386 778 367 760 343 760 c 0
 320 760 300 778 300 801 c 0
 300 824 320 842 343 842 c 0
 367 842 386 824 386 801 c 0
EndSplineSet
Validated: 1
EndChar

StartChar: afii61352
Encoding: 8470 8470 156
Width: 996
Flags: MW
HStem: 0 21G<50 113 50 50 487 558 487 487> 189 61<631 946 631 946> 296 55<753 822.5 753 832.5> 655 45 691 20G<744.5 835>
VStem: 50 63<0 598 0 700> 495 63<102 700> 611 65<447.5 558.5 447.5 571.5> 901 65<447.5 558.5>
LayerCount: 2
Fore
SplineSet
558 0 m 1xf780
 487 0 l 1
 113 598 l 1
 113 0 l 1
 50 0 l 1
 50 700 l 1
 121 700 l 1
 495 102 l 1
 495 700 l 1
 558 700 l 1
 558 0 l 1xf780
790 711 m 0xef80
 880 711 966 640 966 503 c 0
 966 366 878 296 787 296 c 0
 697 296 611 366 611 503 c 0
 611 640 699 711 790 711 c 0xef80
787 351 m 0
 858 351 901 392 901 503 c 0
 901 614 855 655 790 655 c 0xf780
 728 655 676 614 676 503 c 0
 676 392 719 351 787 351 c 0
631 250 m 1
 946 250 l 1
 946 189 l 1
 631 189 l 1
 631 250 l 1
EndSplineSet
Validated: 1
EndChar

StartChar: less
Encoding: 60 60 157
Width: 510
Flags: MW
HStem: -7 21G<490 490> 507 20G<490 490>
LayerCount: 2
Fore
SplineSet
20 285 m 1
 490 527 l 1
 490 461 l 1
 100 260 l 1
 490 59 l 1
 490 -7 l 1
 20 235 l 1
 20 285 l 1
EndSplineSet
Validated: 1
EndChar

StartChar: greater
Encoding: 62 62 158
Width: 510
Flags: MW
HStem: -7 21G<20 20> 507 20G<20 20>
LayerCount: 2
Fore
SplineSet
20 527 m 1
 490 285 l 1
 490 235 l 1
 20 -7 l 1
 20 59 l 1
 410 260 l 1
 20 461 l 1
 20 527 l 1
EndSplineSet
Validated: 1
EndChar

StartChar: guilsinglleft
Encoding: 8249 8249 159
Width: 510
Flags: MW
HStem: -7 21G<490 490> 507 20G<490 490>
LayerCount: 2
Fore
SplineSet
20 285 m 1
 490 527 l 1
 490 461 l 1
 100 260 l 1
 490 59 l 1
 490 -7 l 1
 20 235 l 1
 20 285 l 1
EndSplineSet
Validated: 1
EndChar

StartChar: guilsinglright
Encoding: 8250 8250 160
Width: 510
Flags: MW
HStem: -7 21G<20 20> 507 20G<20 20>
LayerCount: 2
Fore
SplineSet
20 527 m 1
 490 285 l 1
 490 235 l 1
 20 -7 l 1
 20 59 l 1
 410 260 l 1
 20 461 l 1
 20 527 l 1
EndSplineSet
Validated: 1
EndChar

StartChar: colon
Encoding: 58 58 161
Width: 162
Flags: HMW
HStem: -13 98<67 95.5> 380 98<67 95.5>
VStem: 30 102<22.5 49.5 415.5 442.5>
LayerCount: 2
Fore
SplineSet
132 36 m 0
 132 9 110 -13 81 -13 c 0
 53 -13 30 9 30 36 c 0
 30 63 53 85 81 85 c 0
 110 85 132 63 132 36 c 0
132 429 m 4
 132 402 110 380 81 380 c 4
 53 380 30 402 30 429 c 4
 30 456 53 478 81 478 c 4
 110 478 132 456 132 429 c 4
EndSplineSet
Validated: 1
EndChar

StartChar: semicolon
Encoding: 59 59 162
Width: 163
Flags: MW
HStem: -109 21G<60 60> -13 98 380 98<67 95.5>
VStem: 30 102<36 49.5 36 49.5 415.5 442.5>
LayerCount: 2
Fore
SplineSet
132 429 m 0
 132 402 110 380 81 380 c 0
 53 380 30 402 30 429 c 0
 30 456 53 478 81 478 c 0
 110 478 132 456 132 429 c 0
76 -13 m 1
 50 -11 30 10 30 36 c 0
 30 63 53 85 81 85 c 0
 109 85 132 63 132 36 c 1
 134 18 131 -2 124 -23 c 0
 109 -72 60 -109 60 -109 c 1
 36 -87 l 1
 36 -87 68 -55 76 -13 c 1
EndSplineSet
Validated: 33
EndChar

StartChar: quotedbl
Encoding: 34 34 163
Width: 278
Flags: MW
HStem: 394 21G<71 110 71 71 168 168 168 207> 680 20G<50 110 110 110 168 228 228 228>
VStem: 50 60<595 700> 168 60<595 700 595 700 595 700>
LayerCount: 2
Fore
SplineSet
110 394 m 1
 71 394 l 1
 71 394 50 490 50 700 c 1
 110 700 l 1
 110 394 l 1
207 394 m 1
 168 394 l 1
 168 700 l 1
 228 700 l 1
 228 490 207 394 207 394 c 1
EndSplineSet
Validated: 1
EndChar

StartChar: quotesingle
Encoding: 39 39 164
Width: 161
Flags: MW
HStem: 394 21G<53 108 53 53> 680 20G<50 111 111 111>
VStem: 51 58
LayerCount: 2
Fore
SplineSet
108 394 m 1
 53 394 l 1
 50 700 l 1
 111 700 l 1
 108 394 l 1
EndSplineSet
Validated: 1
EndChar

StartChar: section
Encoding: 167 167 165
Width: 432
Flags: MW
HStem: -11 53<157 241 157 254.5> 660 51<204.5 263 179 268.5>
VStem: 40 59<342.5 404 342.5 410.5> 55 59<559.5 611.5 514.5 626> 318 59<106 143.5 79.5 195.5> 333 59<304.5 368>
LayerCount: 2
Fore
SplineSet
392 316 m 0xd4
 392 270 373 236 345 212 c 1
 364 191 377 163 377 124 c 0
 377 35 300 -11 209 -11 c 0
 96 -11 43 33 43 33 c 1
 58 66 l 1
 58 66 123 42 191 42 c 0
 291 42 318 84 318 128 c 0
 318 263 40 200 40 387 c 0xe8
 40 434 58 468 86 491 c 1
 67 512 55 540 55 579 c 0
 55 673 134 711 224 711 c 0
 302 711 369 680 369 680 c 1
 357 646 l 1
 357 646 300 660 237 660 c 0
 172 660 114 641 114 582 c 0
 114 447 392 503 392 316 c 0xd4
333 320 m 0
 333 416 211 416 129 459 c 1
 111 441 99 418 99 390 c 0
 99 295 217 291 299 247 c 1
 319 265 333 289 333 320 c 0
EndSplineSet
Validated: 1
EndChar

StartChar: asciicircum
Encoding: 94 94 166
Width: 350
Flags: MW
HStem: 460 21G<0 66 0 0 284 350 284 284> 680 20G<150 200 200 200>
LayerCount: 2
Fore
SplineSet
150 700 m 1
 200 700 l 1
 350 460 l 1
 284 460 l 1
 175 635 l 1
 66 460 l 1
 0 460 l 1
 150 700 l 1
EndSplineSet
Validated: 1
EndChar

StartChar: underscore
Encoding: 95 95 167
Width: 300
Flags: MW
HStem: -61 61<0 300 0 300>
LayerCount: 2
Fore
SplineSet
0 0 m 1
 300 0 l 1
 300 -61 l 1
 0 -61 l 1
 0 0 l 1
EndSplineSet
Validated: 1
EndChar

StartChar: slash
Encoding: 47 47 168
Width: 393
Flags: MW
HStem: 0 21G<0 63 0 0> 680 20G<330 393 393 393>
LayerCount: 2
Fore
SplineSet
393 700 m 1
 63 0 l 1
 0 0 l 1
 330 700 l 1
 393 700 l 1
EndSplineSet
Validated: 1
EndChar

StartChar: backslash
Encoding: 92 92 169
Width: 393
Flags: MW
HStem: 0 21G<330 330 330 393> 680 20G<0 63 63 63>
LayerCount: 2
Fore
SplineSet
330 0 m 1
 0 700 l 1
 63 700 l 1
 393 0 l 1
 330 0 l 1
EndSplineSet
Validated: 1
EndChar

StartChar: numbersign
Encoding: 35 35 170
Width: 675
Flags: MW
HStem: 0 21G<92 155 92 92 340 403 340 340> 200 61<10 143 10 159 222 391 10 206 470 599> 439 61<76 205 76 220 283 453 76 268 531 665> 680 20G<272 335 335 335 520 583 583 583>
LayerCount: 2
Fore
SplineSet
76 500 m 1
 220 500 l 1
 272 700 l 1
 335 700 l 1
 283 500 l 1
 468 500 l 1
 520 700 l 1
 583 700 l 1
 531 500 l 1
 665 500 l 1
 665 439 l 1
 516 439 l 1
 470 261 l 1
 599 261 l 1
 599 200 l 1
 454 200 l 1
 403 0 l 1
 340 0 l 1
 391 200 l 1
 206 200 l 1
 155 0 l 1
 92 0 l 1
 143 200 l 1
 10 200 l 1
 10 261 l 1
 159 261 l 1
 205 439 l 1
 76 439 l 1
 76 500 l 1
268 439 m 1
 222 261 l 1
 407 261 l 1
 453 439 l 1
 268 439 l 1
EndSplineSet
Validated: 1
EndChar

StartChar: perthousand
Encoding: 8240 8240 171
Width: 1237
Flags: MW
HStem: -13 55<598.5 668.5 598.5 678> -12 21G<983 1073> 0 21G<119 194 119 119> 296 55<172 241.5 172 251.5> 346 56<604.5 668> 655 56<178 241.5> 680 20G<648 722 722 722>
VStem: 30 65<447.5 558.5 447.5 571.5> 320 65<447.5 558.5> 457 65<138.5 249.5 138.5 262.5> 747 65<138.5 249.5> 852 65<139.5 250.5 139.5 263.5> 1142 65<139.5 250.5>
LayerCount: 2
Fore
SplineSet
209 711 m 0x95f8
 299 711 385 640 385 503 c 0
 385 366 297 296 206 296 c 0
 116 296 30 366 30 503 c 0
 30 640 118 711 209 711 c 0x95f8
206 351 m 0
 277 351 320 392 320 503 c 0
 320 614 274 655 209 655 c 0
 147 655 95 614 95 503 c 0
 95 392 138 351 206 351 c 0
635 402 m 0x8bf8
 726 402 812 331 812 194 c 0
 812 57 723 -13 633 -13 c 0
 543 -13 457 57 457 194 c 0
 457 331 545 402 635 402 c 0x8bf8
633 42 m 0
 704 42 747 83 747 194 c 0
 747 305 701 346 635 346 c 0
 574 346 522 305 522 194 c 0
 522 83 564 42 633 42 c 0
722 700 m 1
 194 0 l 1
 119 0 l 1x33f8
 648 700 l 1
 722 700 l 1
1030 403 m 0
 1121 403 1207 332 1207 195 c 0
 1207 58 1118 -12 1028 -12 c 0x55f8
 938 -12 852 58 852 195 c 0
 852 332 940 403 1030 403 c 0
1028 43 m 0
 1099 43 1142 84 1142 195 c 0
 1142 306 1096 347 1030 347 c 0
 969 347 917 306 917 195 c 0
 917 84 959 43 1028 43 c 0
EndSplineSet
Validated: 1
EndChar

StartChar: grave
Encoding: 96 96 172
Width: 221
Flags: MW
HStem: 500 21G<160 221 160 160> 680 20G<0 87 87 87>
LayerCount: 2
Fore
SplineSet
221 500 m 1
 160 500 l 1
 0 700 l 1
 87 700 l 1
 221 500 l 1
EndSplineSet
Validated: 1
EndChar

StartChar: afii10101
Encoding: 1108 1108 173
Width: 390
Flags: MW
HStem: -11 51<116.5 197 115 215.5> 221 49<84 141 84 295 84 141> 426 52<121.5 192>
VStem: 295 65<221 221>
LayerCount: 2
Fore
SplineSet
165 478 m 0
 272 478 360 395 360 243 c 0
 360 77 269 -11 162 -11 c 0
 71 -11 20 30 20 30 c 1
 33 67 l 1
 33 67 78 40 152 40 c 0
 242 40 289 111 295 221 c 1
 84 221 l 1
 84 270 l 1
 198 270 263 262 295 256 c 1
 291 363 234 426 150 426 c 0
 87 426 37 400 37 400 c 1
 24 437 l 1
 24 437 78 478 165 478 c 0
EndSplineSet
Validated: 1
EndChar

StartChar: afii10105
Encoding: 1112 1112 174
Width: 195
Flags: MW
HStem: -231 21G<-13 -13> 446 20G<78 139 139 139> 544 70<98.5 119>
VStem: 78 61<0 466>
LayerCount: 2
Fore
SplineSet
78 0 m 2
 78 466 l 1
 139 466 l 1
 139 0 l 2
 139 -77 137 -223 -13 -231 c 1
 -20 -193 l 1
 50 -174 78 -127 78 0 c 2
145 579 m 0
 145 559 129 544 109 544 c 0
 88 544 72 559 72 579 c 0
 72 598 88 614 109 614 c 0
 129 614 145 598 145 579 c 0
EndSplineSet
Validated: 1
EndChar

StartChar: afii10054
Encoding: 1029 1029 175
Width: 533
Flags: MW
HStem: -13 61<195.5 320 195.5 341> 650 61<241.5 327 202.5 336>
VStem: 42 69<485 574.5 485 584> 433 70<145 217.5>
LayerCount: 2
Fore
SplineSet
477 666 m 1
 463 623 l 1
 463 623 382 650 290 650 c 0
 193 650 111 622 111 527 c 0
 111 443 193 420 280 392 c 0
 422 345 503 297 503 175 c 0
 503 55 409 -13 273 -13 c 0
 106 -13 30 52 30 52 c 1
 50 94 l 1
 50 94 145 48 246 48 c 0
 394 48 433 109 433 181 c 0
 433 254 373 287 262 324 c 0
 152 361 42 400 42 523 c 0
 42 645 136 711 269 711 c 0
 385 711 477 666 477 666 c 1
EndSplineSet
Validated: 1
EndChar

StartChar: afii10102
Encoding: 1109 1109 176
Width: 394
Flags: MW
HStem: -11 53<144 228 144 241.5> 427 51<181.5 240 156 245.5>
VStem: 32 59<326.5 382 326.5 394> 305 59<103.5 153>
LayerCount: 2
Fore
SplineSet
346 447 m 1
 334 413 l 1
 334 413 277 427 214 427 c 0
 149 427 91 414 91 350 c 0
 91 303 144 291 204 273 c 0
 300 243 364 223 364 124 c 0
 364 35 287 -11 196 -11 c 0
 83 -11 30 33 30 33 c 1
 45 66 l 1
 45 66 110 42 178 42 c 0
 278 42 305 79 305 128 c 0
 305 178 267 194 191 213 c 0
 115 233 32 261 32 347 c 0
 32 441 111 478 201 478 c 0
 279 478 346 447 346 447 c 1
EndSplineSet
Validated: 1
EndChar

StartChar: afii10055
Encoding: 1030 1030 177
Width: 163
Flags: MW
HStem: 0 21G<50 113 50 50> 680 20G<50 113 113 113>
VStem: 50 63<0 700 0 700>
LayerCount: 2
Fore
SplineSet
113 700 m 1
 113 0 l 1
 50 0 l 1
 50 700 l 1
 113 700 l 1
EndSplineSet
Validated: 1
EndChar

StartChar: afii10103
Encoding: 1110 1110 178
Width: 173
Flags: MW
HStem: 0 21G<56 117 56 56> 446 20G<56 117 117 117> 544 70<77 97>
VStem: 56 61<0 466 0 466>
LayerCount: 2
Fore
SplineSet
56 466 m 1
 117 466 l 1
 117 0 l 1
 56 0 l 1
 56 466 l 1
123 579 m 0
 123 559 107 544 87 544 c 0
 67 544 50 559 50 579 c 0
 50 598 67 614 87 614 c 0
 107 614 123 598 123 579 c 0
EndSplineSet
Validated: 1
EndChar

StartChar: degree
Encoding: 176 176 179
Width: 395
Flags: MW
HStem: 296 55<162 231.5 162 241.5> 655 56<168 231.5>
VStem: 20 65<447.5 558.5 447.5 571.5> 310 65<447.5 558.5>
LayerCount: 2
Fore
SplineSet
199 711 m 0
 289 711 375 640 375 503 c 0
 375 366 287 296 196 296 c 0
 106 296 20 366 20 503 c 0
 20 640 108 711 199 711 c 0
196 351 m 0
 267 351 310 392 310 503 c 0
 310 614 264 655 199 655 c 0
 137 655 85 614 85 503 c 0
 85 392 128 351 196 351 c 0
EndSplineSet
Validated: 1
EndChar

StartChar: braceleft
Encoding: 123 123 180
Width: 299
Flags: MW
HStem: -160 50<199 294 246 294 246 294> 650 50<239 246 246 294>
VStem: 114 63<-3 138 389 402 402 543> 114 180<-160 151>
LayerCount: 2
Fore
SplineSet
30 248 m 1xe0
 30 292 l 1
 66 292 114 312 114 389 c 2
 114 543 l 2
 114 652 159 700 239 700 c 2
 294 700 l 1
 294 650 l 1xd0
 246 650 l 2
 208 650 177 633 177 543 c 2
 177 402 l 2
 177 284 111 270 111 270 c 1
 111 270 177 256 177 138 c 2
 177 -3 l 2xe0
 177 -93 208 -110 246 -110 c 2
 294 -110 l 1
 294 -160 l 1xd0
 239 -160 l 2
 159 -160 114 -112 114 -3 c 2
 114 151 l 2
 114 228 66 248 30 248 c 1xe0
EndSplineSet
Validated: 1
EndChar

StartChar: braceright
Encoding: 125 125 181
Width: 299
Flags: MW
HStem: -160 50<5 53 53 60 5 53> 650 50<5 53 5 60>
VStem: 5 180<-160 -3 -110 -3> 122 63<-3 138 138 151 402 543>
LayerCount: 2
Fore
SplineSet
269 292 m 1xe0
 269 248 l 1
 233 248 185 228 185 151 c 2
 185 -3 l 2
 185 -112 140 -160 60 -160 c 2
 5 -160 l 1
 5 -110 l 1xe0
 53 -110 l 2
 91 -110 122 -93 122 -3 c 2
 122 138 l 2
 122 256 188 270 188 270 c 1
 188 270 122 284 122 402 c 2
 122 543 l 2xd0
 122 633 91 650 53 650 c 2
 5 650 l 1
 5 700 l 1
 60 700 l 2
 140 700 185 652 185 543 c 2
 185 389 l 2
 185 312 233 292 269 292 c 1xe0
EndSplineSet
Validated: 1
EndChar

StartChar: bar
Encoding: 124 124 182
Width: 163
Flags: MW
HStem: -70 21G<50 113 50 50> 750 20G<50 113 113 113>
VStem: 50 63<-70 770 -70 770>
LayerCount: 2
Fore
SplineSet
113 770 m 1
 113 -70 l 1
 50 -70 l 1
 50 770 l 1
 113 770 l 1
EndSplineSet
Validated: 1
EndChar

StartChar: afii10053
Encoding: 1028 1028 183
Width: 557
Flags: MW
HStem: -13 61<174.5 290 168.5 314.5> 329 60<126 445 126 445> 650 61<185.5 283>
VStem: 445 72<329 329 389 389>
LayerCount: 2
Fore
SplineSet
243 711 m 0
 371 711 517 648 517 357 c 0
 517 84 385 -13 244 -13 c 0
 105 -13 20 55 20 55 c 1
 39 94 l 1
 39 94 116 48 221 48 c 0
 359 48 439 134 445 329 c 1
 126 329 l 1
 126 389 l 1
 445 389 l 1
 437 594 346 650 220 650 c 0
 135 650 62 610 62 610 c 1
 43 649 l 1
 43 649 128 711 243 711 c 0
EndSplineSet
Validated: 1
EndChar

StartChar: endash
Encoding: 8211 8211 184
Width: 548
Flags: MW
HStem: 230 61<20 528 20 528>
LayerCount: 2
Fore
SplineSet
20 291 m 1
 528 291 l 1
 528 230 l 1
 20 230 l 1
 20 291 l 1
EndSplineSet
Validated: 1
EndChar

StartChar: hyphen.001
Encoding: 65537 -1 185
Width: 340
Flags: MW
HStem: 230 61<20 320 20 320>
LayerCount: 2
Fore
SplineSet
20 291 m 1
 320 291 l 1
 320 230 l 1
 20 230 l 1
 20 291 l 1
EndSplineSet
Validated: 1
EndChar

StartChar: emdash
Encoding: 8212 8212 186
Width: 670
Flags: MW
HStem: 230 61<20 650 20 650>
LayerCount: 2
Fore
SplineSet
20 291 m 1
 650 291 l 1
 650 230 l 1
 20 230 l 1
 20 291 l 1
EndSplineSet
Validated: 1
EndChar

StartChar: quotedblright
Encoding: 8221 8221 187
Width: 276
Flags: MW
HStem: 394 21G<74 113 74 74 168 168 168 226> 680 20G<50 113 113 113 168 226 226 226>
VStem: 50 63<585 700> 168 58<394 700 394 700>
LayerCount: 2
Fore
SplineSet
113 394 m 1
 74 394 l 1
 74 394 50 470 50 700 c 1
 113 700 l 1
 113 394 l 1
226 700 m 1
 226 394 l 1
 168 394 l 1
 168 700 l 1
 226 700 l 1
EndSplineSet
Validated: 1
EndChar

StartChar: quotedblleft
Encoding: 8220 8220 188
Width: 279
Flags: MW
HStem: 394 21G<50 110 50 50 168 168 168 229> 680 20G<76 110 110 110 168 229 229 229>
VStem: 50 60<394 700> 168 61<394 700 394 700>
LayerCount: 2
Fore
SplineSet
76 700 m 1
 110 700 l 1
 110 394 l 1
 50 394 l 1
 51 623 76 700 76 700 c 1
168 700 m 1
 229 700 l 1
 229 394 l 1
 168 394 l 1
 168 700 l 1
EndSplineSet
Validated: 1
EndChar

StartChar: quoteleft
Encoding: 8216 8216 189
Width: 160
Flags: MW
HStem: 394 21G<50 110 50 50> 680 20G<76 110 110 110>
VStem: 50 60<394 700>
LayerCount: 2
Fore
SplineSet
76 700 m 1
 110 700 l 1
 110 394 l 1
 50 394 l 1
 51 623 76 700 76 700 c 1
EndSplineSet
Validated: 1
EndChar

StartChar: quoteright
Encoding: 8217 8217 190
Width: 163
Flags: MW
HStem: 394 21G<74 113 74 74> 680 20G<50 113 113 113>
VStem: 50 63<585 700>
LayerCount: 2
Fore
SplineSet
113 394 m 1
 74 394 l 1
 74 394 50 470 50 700 c 1
 113 700 l 1
 113 394 l 1
EndSplineSet
Validated: 1
EndChar

StartChar: quotedblbase
Encoding: 8222 8222 191
Width: 276
Flags: MW
HStem: -176 21G<74 113 74 74 168 168 168 226> 110 20G<50 113 113 113 168 226 226 226>
VStem: 50 63<15 130> 168 58<-176 130 -176 130>
LayerCount: 2
Fore
SplineSet
113 -176 m 1
 74 -176 l 1
 74 -176 50 -100 50 130 c 1
 113 130 l 1
 113 -176 l 1
226 130 m 1
 226 -176 l 1
 168 -176 l 1
 168 130 l 1
 226 130 l 1
EndSplineSet
Validated: 1
EndChar

StartChar: quotesinglbase
Encoding: 8218 8218 192
Width: 163
Flags: MW
HStem: -176 21G<74 113 74 74> 110 20G<50 113 113 113>
VStem: 50 63<15 130>
LayerCount: 2
Fore
SplineSet
113 -176 m 1
 74 -176 l 1
 74 -176 50 -100 50 130 c 1
 113 130 l 1
 113 -176 l 1
EndSplineSet
Validated: 1
EndChar

StartChar: ellipsis
Encoding: 8230 8230 193
Width: 566
Flags: MW
HStem: -13 98<67 95.5 269 297.5 471 499.5>
VStem: 30 102<22.5 49.5> 232 102<22.5 49.5> 434 102<22.5 49.5>
CounterMasks: 1 70
LayerCount: 2
Fore
SplineSet
132 36 m 0
 132 9 110 -13 81 -13 c 0
 53 -13 30 9 30 36 c 0
 30 63 53 85 81 85 c 0
 110 85 132 63 132 36 c 0
334 36 m 0
 334 9 312 -13 283 -13 c 0
 255 -13 232 9 232 36 c 0
 232 63 255 85 283 85 c 0
 312 85 334 63 334 36 c 0
536 36 m 0
 536 9 514 -13 485 -13 c 0
 457 -13 434 9 434 36 c 0
 434 63 457 85 485 85 c 0
 514 85 536 63 536 36 c 0
EndSplineSet
Validated: 1
EndChar

StartChar: afii10057
Encoding: 1032 1032 194
Width: 226
Flags: MW
HStem: -13 21G<7 7> 680 20G<113 176 176 176>
VStem: 113 63<219 700>
LayerCount: 2
Fore
SplineSet
113 219 m 2
 113 700 l 1
 176 700 l 1
 176 219 l 2
 176 142 158 -5 7 -13 c 1
 0 33 l 1
 70 53 113 92 113 219 c 2
EndSplineSet
Validated: 1
EndChar

StartChar: afii10062
Encoding: 1038 1038 195
Width: 573
Flags: MW
HStem: -13 58<168 195.5 159 223> 680 20G<20 90 90 90 483 553 553 553> 728 53<258.5 325.5 258.5 344.5> 728 129<138 344.5>
VStem: 138 61<839 857 839 857>
LayerCount: 2
Fore
SplineSet
483 700 m 1xd8
 553 700 l 1
 332 125 l 2
 299 39 260 -13 186 -13 c 0
 150 -13 114 4 89 28 c 1
 107 65 l 1
 107 65 141 45 177 45 c 0
 214 45 241 64 270 143 c 1
 271 148 l 1
 20 700 l 1
 90 700 l 1
 303 231 l 1
 483 700 l 1xd8
386 857 m 1
 447 857 l 1
 447 792 396 728 293 728 c 0
 176 728 138 792 138 857 c 1
 199 857 l 1xd8
 199 821 224 781 293 781 c 0xe8
 358 781 386 822 386 857 c 1
EndSplineSet
Validated: 1
EndChar

StartChar: afii10110
Encoding: 1118 1118 196
Width: 408
Flags: MW
HStem: -220 52<81 116.5 81 134.5> 0 21G<159 200 159 159> 446 20G<0 66 66 66 345 408 408 408> 512 43<177 235 177 249.5> 512 112<76 249.5>
VStem: 76 52<608.5 624 608.5 624>
LayerCount: 2
Fore
SplineSet
345 466 m 1xec
 408 466 l 1
 242 -74 l 2
 214 -166 172 -220 97 -220 c 0
 64 -220 32 -205 11 -183 c 1
 32 -149 l 1
 46 -157 69 -168 93 -168 c 0
 140 -168 165 -121 183 -59 c 2
 200 0 l 1
 159 0 l 1
 0 466 l 1
 66 466 l 1
 213 38 l 1
 345 466 l 1xec
283 624 m 1
 336 624 l 1
 336 568 293 512 206 512 c 0
 106 512 76 568 76 624 c 1
 128 624 l 1xec
 128 593 148 555 206 555 c 0xf4
 264 555 283 594 283 624 c 1
EndSplineSet
Validated: 1
EndChar

StartChar: brokenbar
Encoding: 166 166 197
Width: 163
Flags: MW
HStem: -70 21G<50 113 50 50> 750 20G<50 113 113 113>
VStem: 50 63<-70 290 410 770>
LayerCount: 2
Fore
SplineSet
113 770 m 1
 113 410 l 1
 50 410 l 1
 50 770 l 1
 113 770 l 1
113 -70 m 1
 50 -70 l 1
 50 290 l 1
 113 290 l 1
 113 -70 l 1
EndSplineSet
Validated: 1
EndChar

StartChar: dagger
Encoding: 8224 8224 198
Width: 403
Flags: MW
HStem: -70 21G<170 233 170 170> 460 61<20 170 20 170 233 383> 750 20G<170 233 233 233>
VStem: 170 63<-70 460 -70 460 521 770>
LayerCount: 2
Fore
SplineSet
20 521 m 1
 170 521 l 1
 170 770 l 1
 233 770 l 1
 233 521 l 1
 383 521 l 1
 383 460 l 1
 233 460 l 1
 233 -70 l 1
 170 -70 l 1
 170 460 l 1
 20 460 l 1
 20 521 l 1
EndSplineSet
Validated: 1
EndChar

StartChar: daggerdbl
Encoding: 8225 8225 199
Width: 403
Flags: MW
HStem: -70 21G<170 233 170 170> 150 61<20 170 20 170 233 383> 489 61<20 170 20 170 233 383> 750 20G<170 233 233 233>
VStem: 170 63<-70 150 -70 150 211 489 550 770>
LayerCount: 2
Fore
SplineSet
20 550 m 1
 170 550 l 1
 170 770 l 1
 233 770 l 1
 233 550 l 1
 383 550 l 1
 383 489 l 1
 233 489 l 1
 233 211 l 1
 383 211 l 1
 383 150 l 1
 233 150 l 1
 233 -70 l 1
 170 -70 l 1
 170 150 l 1
 20 150 l 1
 20 211 l 1
 170 211 l 1
 170 489 l 1
 20 489 l 1
 20 550 l 1
EndSplineSet
Validated: 1
EndChar

StartChar: afii10056
Encoding: 1031 1031 200
Width: 163
Flags: MW
HStem: 0 21G<50 113 50 50> 680 20G<50 113 113 113> 760 82<-17 6.5 156.5 180>
VStem: -48 85<789.5 812.5> 50 63<0 700 0 700> 125 86<789.5 812.5>
LayerCount: 2
Fore
SplineSet
113 700 m 1
 113 0 l 1
 50 0 l 1
 50 700 l 1
 113 700 l 1
37 801 m 0
 37 778 18 760 -5 760 c 0
 -29 760 -48 778 -48 801 c 0
 -48 824 -29 842 -5 842 c 0
 18 842 37 824 37 801 c 0
211 801 m 0
 211 778 192 760 168 760 c 0
 145 760 125 778 125 801 c 0
 125 824 145 842 168 842 c 0
 192 842 211 824 211 801 c 0
EndSplineSet
Validated: 1
EndChar

StartChar: afii10104
Encoding: 1111 1111 201
Width: 173
Flags: MW
HStem: 0 21G<56 117 56 56> 446 20G<56 117 117 117> 512 82<-12 11.5 161.5 185>
VStem: -43 85<541.5 564.5> 56 61<0 466 0 466> 130 86<541.5 564.5>
LayerCount: 2
Fore
SplineSet
56 466 m 1
 117 466 l 1
 117 0 l 1
 56 0 l 1
 56 466 l 1
42 553 m 0
 42 530 23 512 0 512 c 0
 -24 512 -43 530 -43 553 c 0
 -43 576 -24 594 0 594 c 0
 23 594 42 576 42 553 c 0
216 553 m 0
 216 530 197 512 173 512 c 0
 150 512 130 530 130 553 c 0
 130 576 150 594 173 594 c 0
 197 594 216 576 216 553 c 0
EndSplineSet
Validated: 1
EndChar

StartChar: afii10050
Encoding: 1168 1168 202
Width: 464
Flags: MW
HStem: 0 21G<50 113 50 50> 639 61<113 381 50 444 113 113> 639 161<381 444 381 444>
VStem: 50 63<0 639 0 700 0 700> 381 63<700 800 639 800>
LayerCount: 2
Fore
SplineSet
444 800 m 1xb8
 444 639 l 1
 113 639 l 1
 113 0 l 1
 50 0 l 1
 50 700 l 1
 381 700 l 1xd8
 381 800 l 1
 444 800 l 1xb8
EndSplineSet
Validated: 1
EndChar

StartChar: afii10098
Encoding: 1169 1169 203
Width: 352
Flags: MW
HStem: 0 21G<50 111 50 50> 414 52<111 271 50 332 111 111> 414 141<271 332 271 332>
VStem: 50 61<0 414 0 466 0 466> 271 61<466 555 414 555>
LayerCount: 2
Fore
SplineSet
332 555 m 1xb8
 332 414 l 1
 111 414 l 1
 111 0 l 1
 50 0 l 1
 50 466 l 1
 271 466 l 1xd8
 271 555 l 1
 332 555 l 1xb8
EndSplineSet
Validated: 1
EndChar

StartChar: afii10061
Encoding: 1036 1036 204
Width: 539
Flags: MW
HStem: -13 21G<475.5 519> 0 21G<50 114 50 50> 333 62<114 200 200 208 114 200> 680 20G<50 114 114 114 210 210 210 271> 691 20G<465 508> 830 20G<310 397 397 397>
VStem: 50 64<0 333 0 395 395 700>
LayerCount: 2
Fore
SplineSet
415 190 m 0x6e
 441 98 468 49 529 34 c 1
 519 -13 l 1xb6
 432 -13 379 33 343 190 c 0
 315 313 283 333 208 333 c 2
 114 333 l 1
 114 0 l 1
 50 0 l 1
 50 700 l 1
 114 700 l 1x76
 114 395 l 1
 200 395 l 2
 274 395 302 403 330 524 c 0
 367 684 422 711 508 711 c 1
 513 668 l 1
 451 654 428 615 402 524 c 0
 376 431 354 388 303 368 c 1
 371 344 388 287 415 190 c 0x6e
271 700 m 1
 210 700 l 1
 310 850 l 1
 397 850 l 1
 271 700 l 1
EndSplineSet
Validated: 1
EndChar

StartChar: afii10052
Encoding: 1027 1027 205
Width: 464
Flags: MW
HStem: 0 21G<50 113 50 50> 639 61<113 444 113 113> 639 241<309 396 309 444 113 396>
VStem: 50 63<0 639 0 700 0 700>
LayerCount: 2
Fore
SplineSet
50 700 m 1xd0
 444 700 l 1
 444 639 l 1
 113 639 l 1
 113 0 l 1
 50 0 l 1
 50 700 l 1xd0
270 730 m 1
 209 730 l 1
 309 880 l 1
 396 880 l 1xb0
 270 730 l 1
EndSplineSet
Validated: 1
EndChar

StartChar: afii10109
Encoding: 1116 1116 206
Width: 415
Flags: MW
HStem: -5 21G<357.5 394> 0 21G<50 111 50 50> 221 51<111 153 111 163> 446 20G<50 111 111 111> 452 20G<352 383> 456 20G<165 226 165 165> 606 20G<265 352 352 352>
VStem: 50 61<0 221 0 272 272 466>
LayerCount: 2
Fore
SplineSet
320 144 m 0x6b
 333 72 363 52 405 40 c 1
 394 -5 l 1xa7
 321 -5 284 20 256 144 c 0
 240 219 206 221 153 221 c 2
 111 221 l 1
 111 0 l 1
 50 0 l 1
 50 466 l 1
 111 466 l 1x73
 111 272 l 1
 163 272 l 2
 206 272 243 282 255 339 c 0
 281 459 321 472 383 472 c 1
 391 432 l 1
 358 421 331 414 319 338 c 0
 315 309 302 287 284 270 c 1
 262 252 242 249 242 249 c 1
 242 247 l 1
 242 247 264 244 283 225 c 0
 302 206 313 179 320 144 c 0x6b
226 476 m 1
 165 476 l 1
 265 626 l 1
 352 626 l 1
 226 476 l 1
EndSplineSet
Validated: 1
EndChar

StartChar: afii10100
Encoding: 1107 1107 207
Width: 352
Flags: MW
HStem: 0 21G<50 50 50 111> 414 52<111 332 111 111> 414 242<265 332 111 352>
VStem: 50 61<0 414 0 466 0 466>
LayerCount: 2
Fore
SplineSet
50 0 m 1xd0
 50 466 l 1
 332 466 l 1
 332 414 l 1
 111 414 l 1
 111 0 l 1
 50 0 l 1xd0
226 506 m 1
 165 506 l 1
 265 656 l 1
 352 656 l 1xb0
 226 506 l 1
EndSplineSet
Validated: 1
EndChar

StartChar: afii10145
Encoding: 1039 1039 208
Width: 567
Flags: MW
HStem: -183 21G<255 312 255 255> 0 61<114 250 317 317 317 454 114 517> 680 20G<50 114 114 114 454 517 517 517>
VStem: 50 64<61 700 61 700 61 700> 252 62 454 63<61 700 0 700>
LayerCount: 2
Fore
SplineSet
50 0 m 1
 50 700 l 1
 114 700 l 1
 114 61 l 1
 454 61 l 1
 454 700 l 1
 517 700 l 1
 517 0 l 1
 317 0 l 1
 312 -183 l 1
 255 -183 l 1
 250 0 l 1
 50 0 l 1
EndSplineSet
Validated: 1
EndChar

StartChar: afii10193
Encoding: 1119 1119 209
Width: 454
Flags: MW
HStem: -141 21G<202 252 202 202> 0 53<111 196 258 343 111 404 258 258> 446 20G<50 111 111 111 343 404 404 404>
VStem: 50 61<53 466 53 466 53 466> 199 56 343 61<53 466 0 466>
CounterMasks: 1 1c
LayerCount: 2
Fore
SplineSet
258 0 m 1
 252 -141 l 1
 202 -141 l 1
 196 0 l 1
 50 0 l 1
 50 466 l 1
 111 466 l 1
 111 53 l 1
 343 53 l 1
 343 466 l 1
 404 466 l 1
 404 0 l 1
 258 0 l 1
EndSplineSet
Validated: 1
EndChar

StartChar: uni00AD
Encoding: 173 173 210
Width: 340
Flags: MW
HStem: 230 61<20 320 20 320>
LayerCount: 2
Fore
SplineSet
20 291 m 1
 320 291 l 1
 320 230 l 1
 20 230 l 1
 20 291 l 1
EndSplineSet
Validated: 1
EndChar

StartChar: logicalnot
Encoding: 172 172 211
Width: 434
Flags: MW
HStem: 191 161<351 414 351 351> 291 61<20 351 20 414>
VStem: 351 63<191 291 291 291>
LayerCount: 2
Fore
SplineSet
414 352 m 1x60
 414 191 l 1
 351 191 l 1xa0
 351 291 l 1
 20 291 l 1
 20 352 l 1
 414 352 l 1x60
EndSplineSet
Validated: 1
EndChar

StartChar: afii10058
Encoding: 1033 1033 212
Width: 965
Flags: MW
HStem: -12 21G<10 10> 0 61<554 665 554 665> 352 60<554 665 554 665> 639 61<218 491 218 218>
VStem: 154 64<433.5 639 402 700> 491 63<61 61 61 352 412 639 639 639> 866 69<143 273.5>
LayerCount: 2
Fore
SplineSet
665 0 m 2x7e
 491 0 l 1x7e
 491 639 l 1
 218 639 l 1
 218 165 192 7 10 -12 c 1xbe
 0 34 l 1
 115 67 154 167 154 700 c 1
 554 700 l 1
 554 412 l 1
 665 412 l 2
 844 412 935 342 935 208 c 0
 935 70 838 0 665 0 c 2x7e
554 61 m 1
 665 61 l 2
 763 61 866 78 866 208 c 0
 866 339 767 352 665 352 c 2
 554 352 l 1
 554 61 l 1
EndSplineSet
Validated: 1
EndChar

StartChar: afii10059
Encoding: 1034 1034 213
Width: 956
Flags: MW
HStem: 0 61<545 656 545 656> 352 60<545 656 545 656> 680 20G<50 113 113 113 481 545 545 545>
VStem: 50 63<0 352 0 413 413 700> 481 64<61 61 61 352 413 700> 857 69<143 273.5>
LayerCount: 2
Fore
SplineSet
656 0 m 2
 481 0 l 1
 481 352 l 1
 113 352 l 1
 113 0 l 1
 50 0 l 1
 50 700 l 1
 113 700 l 1
 113 413 l 1
 481 413 l 1
 481 700 l 1
 545 700 l 1
 545 412 l 1
 656 412 l 2
 835 412 926 342 926 208 c 0
 926 70 829 0 656 0 c 2
545 61 m 1
 656 61 l 2
 754 61 857 78 857 208 c 0
 857 339 758 352 656 352 c 2
 545 352 l 1
 545 61 l 1
EndSplineSet
Validated: 1
EndChar

StartChar: afii10106
Encoding: 1113 1113 214
Width: 707
Flags: MW
HStem: -5 21G<12 12> 0 52<406 505 406 505> 231 51<406 505 406 505> 414 52<166 345 166 166>
VStem: 105 61<301 414 257 466> 345 61<52 52 52 231 282 414 414 414> 617 60<118 161.5>
LayerCount: 2
Fore
SplineSet
505 282 m 2xbe
 617 282 677 229 677 140 c 0
 677 54 614 0 505 0 c 2
 345 0 l 1x7e
 345 414 l 1
 166 414 l 1
 166 100 127 10 12 -5 c 1
 0 40 l 1
 77 61 105 136 105 466 c 1
 406 466 l 1
 406 282 l 1
 505 282 l 2xbe
406 52 m 1
 505 52 l 2
 590 52 617 96 617 140 c 0
 617 183 592 231 505 231 c 2
 406 231 l 1
 406 52 l 1
EndSplineSet
Validated: 1
EndChar

StartChar: afii10107
Encoding: 1114 1114 215
Width: 698
Flags: MW
HStem: 0 52<397 496 397 496> 231 55<110 336 110 336> 446 20G<50 110 110 110 336 397 397 397>
VStem: 50 60<0 231 0 286 286 466> 336 61<52 52 52 231 286 466> 608 60<118 161.5>
LayerCount: 2
Fore
SplineSet
496 282 m 2
 608 282 668 229 668 140 c 0
 668 54 605 0 496 0 c 2
 336 0 l 1
 336 231 l 1
 110 231 l 1
 110 0 l 1
 50 0 l 1
 50 466 l 1
 110 466 l 1
 110 286 l 1
 336 286 l 1
 336 466 l 1
 397 466 l 1
 397 282 l 1
 496 282 l 2
397 52 m 1
 496 52 l 2
 581 52 608 96 608 140 c 0
 608 183 583 231 496 231 c 2
 397 231 l 1
 397 52 l 1
EndSplineSet
Validated: 1
EndChar

StartChar: mu
Encoding: 181 181 216
AltUni2: 0003bc.ffffffff.0 0003bc.ffffffff.0 0003bc.ffffffff.0 0003bc.ffffffff.0 0003bc.ffffffff.0 0003bc.ffffffff.0
Width: 457
Flags: MW
HStem: -217 21G<50 110 50 50> -11 56<185 235 173.5 237.5> 0 21G<358 407 358 358> 446 20G<50 110 110 110 346 407 407 407>
VStem: 50 60<-217 37 182 235 235 466> 346 61<139 466 0 466>
LayerCount: 2
Fore
SplineSet
206 -11 m 0xdc
 164 -11 133 7 110 37 c 1
 110 -217 l 1
 50 -217 l 1
 50 466 l 1
 110 466 l 1
 110 235 l 2
 110 129 137 45 210 45 c 0xdc
 260 45 304 84 346 139 c 1
 346 466 l 1
 407 466 l 1
 407 0 l 1
 358 0 l 1xbc
 358 0 353 36 349 71 c 1
 321 37 269 -11 206 -11 c 0xdc
EndSplineSet
Validated: 1
EndChar

StartChar: afii10108
Encoding: 1115 1115 217
Width: 487
Flags: MW
HStem: 0 21G<95 156 95 95 386 447 386 386> 389 51<277 337.5> 531 53<10 95 10 95 247.5 273> 680 20G<95 156 156 156>
VStem: 95 61<0 301 366 531 531 531 584 700> 386 61<0 269 0 308>
LayerCount: 2
Fore
SplineSet
447 269 m 2
 447 0 l 1
 386 0 l 1
 386 269 l 2
 386 347 372 389 303 389 c 0
 251 389 200 353 156 301 c 1
 156 0 l 1
 95 0 l 1
 95 531 l 1
 10 531 l 1
 10 584 l 1
 95 584 l 1
 95 700 l 1
 156 700 l 1
 156 584 l 1
 273 584 l 1
 273 531 l 1
 222 531 184 533 156 537 c 1
 156 366 l 1
 188 399 244 440 308 440 c 0
 421 440 447 367 447 269 c 2
EndSplineSet
Validated: 1
EndChar

StartChar: afii10099
Encoding: 1106 1106 218
Width: 487
Flags: MW
HStem: -101 21G<295 295> 0 21G<95 156 95 95> 389 51<277 337.5> 531 53<10 95 10 95 247.5 273> 680 20G<95 156 156 156>
VStem: 95 61<0 301 366 531 531 531 584 700> 386 61<130 269>
LayerCount: 2
Fore
SplineSet
386 130 m 2
 386 269 l 2
 386 347 372 389 303 389 c 0
 251 389 200 353 156 301 c 1
 156 0 l 1
 95 0 l 1
 95 531 l 1
 10 531 l 1
 10 584 l 1
 95 584 l 1
 95 700 l 1
 156 700 l 1
 156 584 l 1
 273 584 l 1
 273 531 l 1
 222 531 184 533 156 537 c 1
 156 366 l 1
 188 399 244 440 308 440 c 0
 421 440 447 367 447 269 c 2
 447 130 l 2
 447 53 445 -93 295 -101 c 1
 288 -63 l 1
 358 -44 386 3 386 130 c 2
EndSplineSet
Validated: 1
EndChar

StartChar: afii10060
Encoding: 1035 1035 219
Width: 650
Flags: MW
HStem: 0 21G<144 208 144 144 546 546 546 610> 385 56<349 452> 639 61<0 374 0 374>
VStem: 0 208<639 700> 144 230<639 700 639 700 639 700> 546 64<0 239 0 286.5>
LayerCount: 2
Fore
SplineSet
208 358 m 1xf4
 208 0 l 1
 144 0 l 1
 144 700 l 1
 208 700 l 1
 208 408 l 1
 208 408 290 441 408 441 c 0
 552 441 610 360 610 239 c 2
 610 0 l 1
 546 0 l 1
 546 239 l 2
 546 334 501 385 403 385 c 0
 275 385 208 358 208 358 c 1xf4
0 700 m 1
 374 700 l 1
 374 639 l 1xec
 0 639 l 1
 0 700 l 1
EndSplineSet
Validated: 5
EndChar

StartChar: afii10051
Encoding: 1026 1026 220
Width: 640
Flags: MW
HStem: -101 21G<455 455> 0 21G<144 208 144 144> 385 56<349 452> 639 61<0 374 0 374>
VStem: 0 208<639 700> 144 64<0 358 0 408 408 700> 144 230<639 700 639 700 639 700> 546 64<130 239>
LayerCount: 2
Fore
SplineSet
0 700 m 1xf9
 374 700 l 1
 374 639 l 1xf3
 0 639 l 1
 0 700 l 1xf9
546 130 m 2xf9
 546 239 l 2
 546 334 501 385 403 385 c 0
 275 385 208 358 208 358 c 1
 208 0 l 1
 144 0 l 1
 144 700 l 1xf5
 208 700 l 1
 208 408 l 1
 208 408 290 441 408 441 c 0
 552 441 610 360 610 239 c 2
 610 130 l 2
 610 53 605 -93 455 -101 c 1
 448 -63 l 1
 518 -44 546 3 546 130 c 2xf9
EndSplineSet
Validated: 5
EndChar

StartChar: currency
Encoding: 164 164 221
Width: 553
Flags: MW
HStem: 0 21G<70 137 70 70 472 543 472 472> 250 49<10 70 20 70 20 70 137 260> 324 49<20 70 20 70 10 70 137 254> 639 61<137 254 137 137>
VStem: 70 67<0 250 0 250 299 324 373 639> 454 69<450 567>
LayerCount: 2
Fore
SplineSet
10 250 m 1
 20 299 l 1
 70 299 l 1
 70 324 l 1
 10 324 l 1
 20 373 l 1
 70 373 l 1
 70 700 l 1
 254 700 l 2
 426 700 523 634 523 509 c 0
 523 391 426 324 254 324 c 2
 137 324 l 1
 137 299 l 1
 260 299 l 2
 370 299 407 269 452 180 c 2
 543 0 l 1
 472 0 l 1
 387 168 l 2
 355 231 320 250 260 250 c 2
 137 250 l 1
 137 0 l 1
 70 0 l 1
 70 250 l 1
 10 250 l 1
137 373 m 1
 254 373 l 2
 355 373 454 390 454 509 c 0
 454 625 352 639 254 639 c 2
 137 639 l 1
 137 373 l 1
EndSplineSet
Validated: 1
EndChar

StartChar: guillemotright
Encoding: 187 187 222
Width: 382
Flags: MW
HStem: -12 21G<186 186> 473 20G
LayerCount: 2
Fore
SplineSet
54 2 m 1
 20 22 l 1
 150 245 l 1
 24 462 l 1
 53 479 l 1
 53 479 106 440 221 241 c 1
 106 42 54 2 54 2 c 1
291 236 m 1
 154 473 l 1
 188 493 l 1
 188 493 247 439 362 240 c 1
 247 42 186 -12 186 -12 c 1
 158 5 l 1
 291 236 l 1
EndSplineSet
Validated: 1
EndChar

StartChar: afii10017
Encoding: 1040 1040 223
Width: 569
Flags: MW
HStem: 0 21G<20 84 20 20 481 549 481 481> 212 57<169 388 169 408 151 388> 680 20G<242 306 306 306>
LayerCount: 2
Fore
SplineSet
481 0 m 1
 408 212 l 1
 151 212 l 1
 84 0 l 1
 20 0 l 1
 242 700 l 1
 306 700 l 1
 549 0 l 1
 481 0 l 1
169 269 m 1
 388 269 l 1
 274 599 l 1
 169 269 l 1
EndSplineSet
Validated: 1
EndChar

StartChar: asciitilde
Encoding: 126 126 224
Width: 517
Flags: MW
HStem: 199 59<367 396.5> 262 59<120.5 150>
LayerCount: 2
Fore
SplineSet
246 232 m 0
 203 251 166 262 134 262 c 0
 102 262 75 250 52 222 c 1
 20 243 l 1
 51 302 97 321 144 321 c 0
 190 321 236 303 271 288 c 0
 314 269 351 258 383 258 c 0
 415 258 442 270 465 298 c 1
 497 277 l 1
 466 218 420 199 373 199 c 0
 327 199 281 217 246 232 c 0
EndSplineSet
Validated: 1
EndChar

StartChar: periodcentered
Encoding: 183 183 225
Width: 250
Flags: MW
HStem: 302 98<111 139.5>
VStem: 74 102<337.5 364.5>
LayerCount: 2
Fore
SplineSet
176 351 m 0
 176 324 154 302 125 302 c 0
 97 302 74 324 74 351 c 0
 74 378 97 400 125 400 c 0
 154 400 176 378 176 351 c 0
EndSplineSet
Validated: 1
EndChar

StartChar: bullet
Encoding: 8226 8226 226
Width: 320
Flags: MW
HStem: 240 220<127.5 192.5>
VStem: 50 220<317.5 382.5>
LayerCount: 2
Fore
SplineSet
270 350 m 0
 270 285 225 240 160 240 c 0
 95 240 50 285 50 350 c 0
 50 415 95 460 160 460 c 0
 225 460 270 415 270 350 c 0
EndSplineSet
Validated: 1
EndChar

StartChar: apple
Encoding: 65538 -1 227
Width: 2345
Flags: MW
HStem: -10 21G<1137.5 1232.5 2030 2077.5> 0 21G<20 340 20 20 340 660 340 340 670 670 670 830 830 830 830 990 1380 1665 1380 1380 1700 1700 1700 2020> 665 20G<632.5 727.5>
VStem: 670 180<0 562.5 320 562.5> 2030 170<112.5 207.5 112.5 330 112.5 330>
LayerCount: 2
Fore
SplineSet
1355 160 m 0xb8
 1355 65 1280 -10 1185 -10 c 0
 1090 -10 1015 65 1015 160 c 0
 1015 255 1090 330 1185 330 c 0
 1280 330 1355 255 1355 160 c 0xb8
850 515 m 0
 850 420 775 345 680 345 c 0
 585 345 510 420 510 515 c 0
 510 610 585 685 680 685 c 0
 775 685 850 610 850 515 c 0
1345 355 m 1
 1025 355 l 1
 1185 675 l 1
 1345 355 l 1
820 675 m 1
 1140 675 l 1
 980 355 l 1
 820 675 l 1
485 355 m 1
 165 355 l 1
 485 675 l 1
 485 355 l 1
2025 675 m 1
 2345 675 l 1
 2185 355 l 1
 2025 675 l 1
340 0 m 1x78
 20 0 l 1
 20 320 l 1
 340 0 l 1x78
2020 0 m 1
 1700 0 l 1
 1860 320 l 1
 2020 0 l 1
2200 160 m 0
 2200 65 2125 -10 2030 -10 c 1xb8
 2030 330 l 1
 2125 330 2200 255 2200 160 c 0
1380 0 m 1x78
 1380 295 l 1
 1665 0 l 1
 1380 0 l 1x78
1690 320 m 1
 1690 25 l 1
 1405 320 l 1
 1690 320 l 1
2015 675 m 1
 2015 380 l 1
 1730 675 l 1
 2015 675 l 1
1355 355 m 1
 1355 650 l 1
 1640 355 l 1
 1355 355 l 1
1665 675 m 1
 1665 380 l 1
 1380 675 l 1
 1665 675 l 1
1705 355 m 1
 1705 650 l 1
 1990 355 l 1
 1705 355 l 1
340 0 m 1
 340 160 l 1
 660 0 l 1
 340 0 l 1
990 320 m 1
 990 0 l 1
 830 0 l 1
 990 320 l 1
340 320 m 1
 660 320 l 1
 340 160 l 1
 340 320 l 1
670 320 m 1
 830 0 l 1
 670 0 l 1
 670 320 l 1
EndSplineSet
Validated: 5
EndChar

StartChar: parenleft
Encoding: 40 40 231
Width: 260
Flags: MW
HStem: -176 21G<231 231> 690 20G<231 231>
VStem: 40 69<125.5 408.5 125.5 438.5>
LayerCount: 2
Fore
SplineSet
109 267 m 0
 109 -16 255 -146 255 -146 c 1
 231 -176 l 1
 231 -176 40 -76 40 267 c 0
 40 610 231 710 231 710 c 1
 255 680 l 1
 255 680 109 550 109 267 c 0
EndSplineSet
Validated: 1
EndChar

StartChar: adieresis
Encoding: 228 228 232
Width: 443
Flags: HW
HStem: -5 51<115.992 256.068> 220 49<165.981 332> 421 51<110.164 295.257> 565 98<43.7539 128.51 299.754 384.51>
VStem: 35 102<574.057 653.943> 35 61<64.6711 170.839> 291 102<574.057 653.943> 332 61<109.271 220 269 383.706> 344 49<0 69.3588>
LayerCount: 2
Fore
SplineSet
393 626 m 0x32
 393 599 371 577 342 577 c 0
 314 577 291 599 291 626 c 0
 291 653 314 675 342 675 c 0
 371 675 393 653 393 626 c 0x32
137 626 m 0x38
 137 599 115 577 86 577 c 0
 58 577 35 599 35 626 c 0
 35 653 58 675 86 675 c 0
 115 675 137 653 137 626 c 0x38
228 472 m 0
 335 472 393 427 393 275 c 2xf5
 393 0 l 1
 344 0 l 1xf080
 344 0 338 36 335 71 c 1
 304 39 244 -5 174 -5 c 0
 90 -5 35 41 35 114 c 0
 35 200 98 266 332 269 c 1
 332 275 l 2xf5
 332 390 300 421 213 421 c 0
 150 421 77 394 77 394 c 1
 64 431 l 1
 64 431 141 472 228 472 c 0
178 46 m 0
 233 46 287 79 332 133 c 1
 332 220 l 1
 185 219 96 195 96 118 c 0
 96 66 134 46 178 46 c 0
EndSplineSet
Validated: 1
EndChar

StartChar: odieresis
Encoding: 246 246 233
Width: 477
Flags: HW
HStem: -11 53<163.103 314.503> 425 63<169.601 313.009> 565 98<38.7539 123.51 353.754 438.51>
VStem: 30 102<574.057 653.943> 30 63<122.19 340.424> 345 102<574.057 653.943> 384 63<122.19 342.416>
LayerCount: 2
Fore
SplineSet
447 626 m 0x32
 447 599 425 577 396 577 c 0
 368 577 345 599 345 626 c 0
 345 653 368 675 396 675 c 0
 425 675 447 653 447 626 c 0x32
132 626 m 0x38
 132 599 110 577 81 577 c 0
 53 577 30 599 30 626 c 0
 30 653 53 675 81 675 c 0
 110 675 132 653 132 626 c 0x38
240 488 m 0
 346 488 447 395 447 233 c 0
 447 72 343 -11 237 -11 c 0
 131 -11 30 72 30 233 c 0xea
 30 395 134 488 240 488 c 0
237 42 m 0
 321 42 384 103 384 233 c 0
 384 364 317 425 240 425 c 0
 167 425 93 364 93 233 c 0
 93 103 156 42 237 42 c 0
EndSplineSet
Validated: 1
EndChar

StartChar: udieresis
Encoding: 252 252 234
Width: 457
Flags: W
HStem: -11 51<152.097 273.357> 0 21G<355.465 407> 446 20G<50 110 346 407> 577 98<58.7539 143.51 313.754 398.51>
VStem: 50 102<586.057 665.943> 50 60<90.5234 466> 305 102<586.057 665.943> 346 61<107.175 466> 358 49<0 69.3588>
LayerCount: 2
Fore
SplineSet
407 626 m 0x32
 407 599 385 577 356 577 c 0
 328 577 305 599 305 626 c 0
 305 653 328 675 356 675 c 0
 385 675 407 653 407 626 c 0x32
152 626 m 0x38
 152 599 130 577 101 577 c 0
 73 577 50 599 50 626 c 0
 50 653 73 675 101 675 c 0
 130 675 152 653 152 626 c 0x38
201 -11 m 0xb080
 88 -11 50 73 50 200 c 2
 50 466 l 1
 110 466 l 1
 110 200 l 2
 110 114 137 40 205 40 c 0
 260 40 304 79 346 134 c 1
 346 466 l 1
 407 466 l 1xb5
 407 0 l 1
 358 0 l 1x7080
 358 0 353 36 349 71 c 1
 321 37 269 -11 201 -11 c 0xb080
EndSplineSet
Validated: 1
EndChar

StartChar: germandbls
Encoding: 223 223 235
Width: 435
Flags: HW
HStem: 0 21G<104 164 104 104> 413 53<20 104 20 104 257 283> 661 50<215 253>
VStem: 104 60<0 413 413 413 466 554>
LayerCount: 2
Fore
SplineSet
358.5 575.5 m 1
 361 501.5 328.5 456.5 267 433 c 1
 234 426 203 407 203 359 c 0
 203 319 232.548 292.849 286 276 c 0
 378 247 415 196 415 118 c 0
 415 40 352.5 -11 278 -11 c 0
 185 -11 156 36 156 36 c 1
 171 69 l 1
 171 69 203 42 260 42 c 0
 345.5 42 356 85 356 119 c 0
 356 148 340 199 273 216 c 0
 204.119 233.478 144 282 144 356 c 0
 144 429 195.208 475.426 254 484 c 1
 306 500 307 550 305 576 c 1
 301 616 234 661 153 660 c 0
 112.003 659.494 83 615 83 553 c 2
 83 465 l 1
 83 419 l 1
 83 -1 l 1
 23 -1 l 1
 23 371 l 1
 23 413 l 1
 23 553 l 2
 23 642 69.001 709.603 150 710 c 1
 314 714 356 616 358.5 575.5 c 1
358.5 575.5 m 25
EndSplineSet
Validated: 33
EndChar

StartChar: Adieresis
Encoding: 196 196 236
Width: 569
Flags: HW
HStem: 0 21G<20 84 20 20 481 549 481 481> 212 57<169 388 169 408 151 388> 680 20G<242 306 306 306>
LayerCount: 2
Fore
SplineSet
453 851 m 0x32
 453 824 431 802 402 802 c 0
 374 802 351 824 351 851 c 0
 351 878 374 900 402 900 c 0
 431 900 453 878 453 851 c 0x32
197 851 m 0x38
 197 824 175 802 146 802 c 0
 118 802 95 824 95 851 c 0
 95 878 118 900 146 900 c 0
 175 900 197 878 197 851 c 0x38
481 0 m 1
 408 212 l 1
 151 212 l 1
 84 0 l 1
 20 0 l 1
 242 700 l 1
 306 700 l 1
 549 0 l 1
 481 0 l 1
169 269 m 1
 388 269 l 1
 274 599 l 1
 169 269 l 1
EndSplineSet
Validated: 1
EndChar

StartChar: Odieresis
Encoding: 214 214 237
Width: 647
Flags: HW
HStem: -13 61<269 379 269 404> 650 61<269 379>
VStem: 40 72<238.5 459.5 238.5 474> 536 71<238.5 459.5>
LayerCount: 2
Fore
SplineSet
553 851 m 4x32
 553 824 531 802 502 802 c 4
 474 802 451 824 451 851 c 4
 451 878 474 900 502 900 c 4
 531 900 553 878 553 851 c 4x32
197 851 m 4x38
 197 824 175 802 146 802 c 4
 118 802 95 824 95 851 c 4
 95 878 118 900 146 900 c 4
 175 900 197 878 197 851 c 4x38
324 711 m 0
 484 711 607 599 607 349 c 0
 607 99 484 -13 324 -13 c 0
 164 -13 40 99 40 349 c 0
 40 599 164 711 324 711 c 0
324 48 m 0
 434 48 536 128 536 349 c 0
 536 570 434 650 324 650 c 0
 214 650 112 570 112 349 c 0
 112 128 214 48 324 48 c 0
EndSplineSet
Validated: 1
EndChar

StartChar: Udieresis
Encoding: 220 220 238
Width: 584
Flags: HW
HStem: -13 61<241 343.5> 680 20G<50 113 113 113 470 534 534 534>
VStem: 50 63<238 700> 470 64<238 700>
LayerCount: 2
Fore
SplineSet
534 851 m 4x32
 534 824 512 802 483 802 c 4
 455 802 432 824 432 851 c 4
 432 878 455 900 483 900 c 4
 512 900 534 878 534 851 c 4x32
152 851 m 4x38
 152 824 130 802 101 802 c 4
 73 802 50 824 50 851 c 4
 50 878 73 900 101 900 c 4
 130 900 152 878 152 851 c 4x38
534 700 m 1
 534 238 l 2
 534 40 395 -13 292 -13 c 0
 190 -13 50 40 50 238 c 2
 50 700 l 1
 113 700 l 1
 113 238 l 2
 113 109 182 48 292 48 c 0
 402 48 470 109 470 238 c 2
 470 700 l 1
 534 700 l 1
EndSplineSet
Validated: 1
EndChar

StartChar: Delta
Encoding: 916 916 239
Width: 502
Flags: WO
HStem: 0 58<91 407> 446 20G<205.773 296.227>
LayerCount: 2
Fore
SplineSet
0 0 m 1
 215 466 l 1
 287 466 l 1
 502 0 l 1
 0 0 l 1
91 58 m 1
 407 58 l 1
 251 407 l 1
 91 58 l 1
EndSplineSet
Validated: 1
EndChar

StartChar: acute
Encoding: 180 180 240
Width: 214
Flags: HW
HStem: 460 21G<0 66 0 0 284 350 284 284> 680 20G<150 200 200 200>
LayerCount: 2
Fore
SplineSet
175 635 m 1
 66 460 l 1
 0 460 l 1
 150 700 l 1
 214 700 l 1
 175 635 l 1
EndSplineSet
Validated: 1
EndChar
